  0
SECTION
  2
HEADER
  9
$ACADVER
  1
AC1014
  9
$ACADMAINTVER
 70
     9
  9
$DWGCODEPAGE
  3
ANSI_1252
  9
$INSBASE
 10
0.0
 20
0.0
 30
0.0
  9
$EXTMIN
 10
0.0
 20
0.0
 30
0.0
  9
$EXTMAX
 10
25.0
 20
35.0
 30
0.0
  9
$LIMMIN
 10
0.0
 20
0.0
  9
$LIMMAX
 10
420.0
 20
297.0
  9
$ORTHOMODE
 70
     0
  9
$REGENMODE
 70
     1
  9
$FILLMODE
 70
     1
  9
$QTEXTMODE
 70
     0
  9
$MIRRTEXT
 70
     1
  9
$DRAGMODE
 70
     2
  9
$LTSCALE
 40
1.2
  9
$OSMODE
 70
    37
  9
$ATTMODE
 70
     1
  9
$TEXTSIZE
 40
2.5
  9
$TRACEWID
 40
1.0
  9
$TEXTSTYLE
  7
STANDARD
  9
$CLAYER
  8
0
  9
$CELTYPE
  6
BYLAYER
  9
$CECOLOR
 62
   256
  9
$CELTSCALE
 40
1.0
  9
$DELOBJ
 70
     1
  9
$DISPSILH
 70
     0
  9
$DIMSCALE
 40
1.0
  9
$DIMASZ
 40
2.5
  9
$DIMEXO
 40
0.625
  9
$DIMDLI
 40
3.75
  9
$DIMRND
 40
0.0
  9
$DIMDLE
 40
0.0
  9
$DIMEXE
 40
1.25
  9
$DIMTP
 40
0.0
  9
$DIMTM
 40
0.0
  9
$DIMTXT
 40
2.5
  9
$DIMCEN
 40
2.5
  9
$DIMTSZ
 40
0.0
  9
$DIMTOL
 70
     0
  9
$DIMLIM
 70
     0
  9
$DIMTIH
 70
     0
  9
$DIMTOH
 70
     0
  9
$DIMSE1
 70
     0
  9
$DIMSE2
 70
     0
  9
$DIMTAD
 70
     1
  9
$DIMZIN
 70
     8
  9
$DIMBLK
  1

  9
$DIMASO
 70
     1
  9
$DIMSHO
 70
     1
  9
$DIMPOST
  1

  9
$DIMAPOST
  1

  9
$DIMALT
 70
     0
  9
$DIMALTD
 70
     3
  9
$DIMALTF
 40
0.03937007874016
  9
$DIMLFAC
 40
1.0
  9
$DIMTOFL
 70
     1
  9
$DIMTVP
 40
0.0
  9
$DIMTIX
 70
     0
  9
$DIMSOXD
 70
     0
  9
$DIMSAH
 70
     0
  9
$DIMBLK1
  1

  9
$DIMBLK2
  1

  9
$DIMSTYLE
  2
ISO-25
  9
$DIMCLRD
 70
     0
  9
$DIMCLRE
 70
     0
  9
$DIMCLRT
 70
     0
  9
$DIMTFAC
 40
1.0
  9
$DIMGAP
 40
0.625
  9
$DIMJUST
 70
     0
  9
$DIMSD1
 70
     0
  9
$DIMSD2
 70
     0
  9
$DIMTOLJ
 70
     0
  9
$DIMTZIN
 70
     8
  9
$DIMALTZ
 70
     0
  9
$DIMALTTZ
 70
     0
  9
$DIMFIT
 70
     3
  9
$DIMUPT
 70
     0
  9
$DIMUNIT
 70
     2
  9
$DIMDEC
 70
     2
  9
$DIMTDEC
 70
     2
  9
$DIMALTU
 70
     2
  9
$DIMALTTD
 70
     3
  9
$DIMTXSTY
  7
STANDARD
  9
$DIMAUNIT
 70
     0
  9
$LUNITS
 70
     2
  9
$LUPREC
 70
     4
  9
$SKETCHINC
 40
1.0
  9
$FILLETRAD
 40
10.0
  9
$AUNITS
 70
     0
  9
$AUPREC
 70
     0
  9
$MENU
  1
.
  9
$ELEVATION
 40
0.0
  9
$PELEVATION
 40
0.0
  9
$THICKNESS
 40
0.0
  9
$LIMCHECK
 70
     0
  9
$CHAMFERA
 40
10.0
  9
$CHAMFERB
 40
10.0
  9
$CHAMFERC
 40
20.0
  9
$CHAMFERD
 40
0.0
  9
$SKPOLY
 70
     0
  9
$TDCREATE
 40
2456562.74375
  9
$TDUPDATE
 40
2456562.747222222
  9
$TDINDWG
 40
0.0000000116
  9
$TDUSRTIMER
 40
0.0000000116
  9
$USRTIMER
 70
     1
  9
$ANGBASE
 50
0.0
  9
$ANGDIR
 70
     0
  9
$PDMODE
 70
     0
  9
$PDSIZE
 40
0.0
  9
$PLINEWID
 40
0.0
  9
$COORDS
 70
     1
  9
$SPLFRAME
 70
     0
  9
$SPLINETYPE
 70
     6
  9
$SPLINESEGS
 70
     8
  9
$ATTDIA
 70
     0
  9
$ATTREQ
 70
     1
  9
$HANDLING
 70
     1
  9
$HANDSEED
  5
4A3
  9
$SURFTAB1
 70
     6
  9
$SURFTAB2
 70
     6
  9
$SURFTYPE
 70
     6
  9
$SURFU
 70
     6
  9
$SURFV
 70
     6
  9
$UCSNAME
  2

  9
$UCSORG
 10
0.0
 20
0.0
 30
0.0
  9
$UCSXDIR
 10
1.0
 20
0.0
 30
0.0
  9
$UCSYDIR
 10
0.0
 20
1.0
 30
0.0
  9
$PUCSNAME
  2

  9
$PUCSORG
 10
0.0
 20
0.0
 30
0.0
  9
$PUCSXDIR
 10
1.0
 20
0.0
 30
0.0
  9
$PUCSYDIR
 10
0.0
 20
1.0
 30
0.0
  9
$USERI1
 70
     0
  9
$USERI2
 70
     0
  9
$USERI3
 70
     0
  9
$USERI4
 70
     0
  9
$USERI5
 70
     0
  9
$USERR1
 40
0.0
  9
$USERR2
 40
0.0
  9
$USERR3
 40
0.0
  9
$USERR4
 40
0.0
  9
$USERR5
 40
0.0
  9
$WORLDVIEW
 70
     1
  9
$SHADEDGE
 70
     3
  9
$SHADEDIF
 70
    70
  9
$TILEMODE
 70
     1
  9
$MAXACTVP
 70
    64
  9
$PINSBASE
 10
0.0
 20
0.0
 30
0.0
  9
$PLIMCHECK
 70
     0
  9
$PEXTMIN
 10
1.000000000000000E+20
 20
1.000000000000000E+20
 30
1.000000000000000E+20
  9
$PEXTMAX
 10
-1.000000000000000E+20
 20
-1.000000000000000E+20
 30
-1.000000000000000E+20
  9
$PLIMMIN
 10
0.0
 20
0.0
  9
$PLIMMAX
 10
420.0
 20
297.0
  9
$UNITMODE
 70
     0
  9
$VISRETAIN
 70
     1
  9
$PLINEGEN
 70
     0
  9
$PSLTSCALE
 70
     1
  9
$TREEDEPTH
 70
  3020
  9
$PICKSTYLE
 70
     1
  9
$CMLSTYLE
  2
STANDARD
  9
$CMLJUST
 70
     0
  9
$CMLSCALE
 40
20.0
  9
$PROXYGRAPHICS
 70
     1
  9
$MEASUREMENT
 70
     1
  0
ENDSEC
  0
SECTION
  2
CLASSES
  0
CLASS
  1
ACDBDICTIONARYWDFLT
  2
AcDbDictionaryWithDefault
  3
ObjectDBX Classes
 90
        0
280
     0
281
     0
  0
CLASS
  1
VISUALSTYLE
  2
AcDbVisualStyle
  3
ObjectDBX Classes
 90
     4095
280
     0
281
     0
  0
CLASS
  1
MATERIAL
  2
AcDbMaterial
  3
ObjectDBX Classes
 90
     1153
280
     0
281
     0
  0
CLASS
  1
SCALE
  2
AcDbScale
  3
ObjectDBX Classes
 90
     1153
280
     0
281
     0
  0
CLASS
  1
DICTIONARYVAR
  2
AcDbDictionaryVar
  3
ObjectDBX Classes
 90
        0
280
     0
281
     0
  0
CLASS
  1
XRECORD
  2
AcDbXrecord
  3
AutoCAD 2000
 90
        0
280
     0
281
     0
  0
CLASS
  1
LWPOLYLINE
  2
AcDbPolyline
  3
AutoCAD 2000
 90
        0
280
     0
281
     1
  0
CLASS
  1
HATCH
  2
AcDbHatch
  3
AutoCAD 2000
 90
        0
280
     0
281
     1
  0
CLASS
  1
ACDBPLACEHOLDER
  2
AcDbPlaceHolder
  3
ObjectDBX Classes
 90
        0
280
     0
281
     0
  0
CLASS
  1
LAYOUT
  2
AcDbLayout
  3
ObjectDBX Classes
 90
        0
280
     0
281
     0
  0
ENDSEC
  0
SECTION
  2
TABLES
  0
TABLE
  2
VPORT
  5
8
330
0
100
AcDbSymbolTable
 70
     1
  0
VPORT
  5
29
330
8
100
AcDbSymbolTableRecord
100
AcDbViewportTableRecord
  2
*ACTIVE
 70
     0
 10
0.0
 20
0.0
 11
1.0
 21
1.0
 12
11.26
 22
4.5
 13
0.0
 23
0.0
 14
10.0
 24
10.0
 15
10.0
 25
10.0
 16
0.0
 26
0.0
 36
1.0
 17
0.0
 27
0.0
 37
0.0
 40
9.0
 41
2.503333333333333
 42
50.0
 43
0.0
 44
0.0
 50
0.0
 51
0.0
 71
     0
 72
   100
 73
     1
 74
     3
 75
     0
 76
     0
 77
     0
 78
     0
  0
ENDTAB
  0
TABLE
  2
LTYPE
  5
5
330
0
100
AcDbSymbolTable
 70
     1
  0
LTYPE
  5
14
330
5
100
AcDbSymbolTableRecord
100
AcDbLinetypeTableRecord
  2
BYBLOCK
 70
     0
  3

 72
    65
 73
     0
 40
0.0
  0
LTYPE
  5
15
330
5
100
AcDbSymbolTableRecord
100
AcDbLinetypeTableRecord
  2
BYLAYER
 70
     0
  3

 72
    65
 73
     0
 40
0.0
  0
LTYPE
  5
16
330
5
100
AcDbSymbolTableRecord
100
AcDbLinetypeTableRecord
  2
CONTINUOUS
 70
     0
  3
Solid line
 72
    65
 73
     0
 40
0.0
  0
ENDTAB
  0
TABLE
  2
LAYER
  5
2
330
0
100
AcDbSymbolTable
 70
     1
  0
LAYER
  5
10
330
2
100
AcDbSymbolTableRecord
100
AcDbLayerTableRecord
  2
0
 70
     0
 62
     7
  6
CONTINUOUS
  0
ENDTAB
  0
TABLE
  2
STYLE
  5
3
330
0
100
AcDbSymbolTable
 70
     1
  0
STYLE
  5
11
330
3
100
AcDbSymbolTableRecord
100
AcDbTextStyleTableRecord
  2
STANDARD
 70
     0
 40
0.0
 41
1.0
 50
0.0
 71
     0
 42
2.5
  3
txt
  4

  0
ENDTAB
  0
TABLE
  2
VIEW
  5
6
330
0
100
AcDbSymbolTable
 70
     0
  0
ENDTAB
  0
TABLE
  2
UCS
  5
7
330
0
100
AcDbSymbolTable
 70
     0
  0
ENDTAB
  0
TABLE
  2
APPID
  5
9
330
0
100
AcDbSymbolTable
 70
     2
  0
APPID
  5
12
330
9
100
AcDbSymbolTableRecord
100
AcDbRegAppTableRecord
  2
ACAD
 70
     0
  0
APPID
  5
3F
330
9
100
AcDbSymbolTableRecord
100
AcDbRegAppTableRecord
  2
CCLAB
 70
     0
  0
ENDTAB
  0
TABLE
  2
DIMSTYLE
  5
A
330
0
100
AcDbSymbolTable
 70
     1
  0
DIMSTYLE
105
27
330
A
100
AcDbSymbolTableRecord
100
AcDbDimStyleTableRecord
  2
ISO-25
 70
     0
  3

  4

  5

  6

  7

 40
1.0
 41
2.5
 42
0.625
 43
3.75
 44
1.25
 45
0.0
 46
0.0
 47
0.0
 48
0.0
140
2.5
141
2.5
142
0.0
143
0.03937007874016
144
1.0
145
0.0
146
1.0
147
0.625
 71
     0
 72
     0
 73
     0
 74
     0
 75
     0
 76
     0
 77
     1
 78
     8
170
     0
171
     3
172
     1
173
     0
174
     0
175
     0
176
     0
177
     0
178
     0
270
     2
271
     2
272
     2
273
     2
274
     3
340
11
275
     0
280
     0
281
     0
282
     0
283
     0
284
     8
285
     0
286
     0
287
     3
288
     0
  0
ENDTAB
  0
TABLE
  2
BLOCK_RECORD
  5
1
330
0
100
AcDbSymbolTable
 70
     4
  0
BLOCK_RECORD
  5
1F
330
1
100
AcDbSymbolTableRecord
100
AcDbBlockTableRecord
  2
*MODEL_SPACE
  0
BLOCK_RECORD
  5
1B
330
1
100
AcDbSymbolTableRecord
100
AcDbBlockTableRecord
  2
*PAPER_SPACE
  0
ENDTAB
  0
ENDSEC
  0
SECTION
  2
BLOCKS
  0
BLOCK
  5
20
330
1F
100
AcDbEntity
  8
0
100
AcDbBlockBegin
  2
*MODEL_SPACE
 70
     0
 10
0.0
 20
0.0
 30
0.0
  3
*MODEL_SPACE
  1

  0
ENDBLK
  5
21
330
1F
100
AcDbEntity
  8
0
100
AcDbBlockEnd
  0
BLOCK
  5
1C
330
1B
100
AcDbEntity
 67
     1
  8
0
100
AcDbBlockBegin
  2
*PAPER_SPACE
 70
     0
 10
0.0
 20
0.0
 30
0.0
  3
*PAPER_SPACE
  1

  0
ENDBLK
  5
1D
330
1B
100
AcDbEntity
 67
     1
  8
0
100
AcDbBlockEnd
  0
ENDSEC
  0
SECTION
  2
ENTITIES
  0
LINE
  5
271
330
1F
100
AcDbEntity
  8
0
100
AcDbLine
 10
-19.998489
 20
-8.567297
 30
0.0
 11
-20.0
 21
-8.5
 31
0.0
  0
LINE
  5
272
330
1F
100
AcDbEntity
  8
0
100
AcDbLine
 10
20.0
 20
8.5
 30
0.0
 11
19.998489
 21
8.567297
 31
0.0
  0
LINE
  5
273
330
1F
100
AcDbEntity
  8
0
100
AcDbLine
 10
-7.250888
 20
0.06988
 30
0.0
 11
-7.257988
 21
0.209458
 31
0.0
  0
LINE
  5
274
330
1F
100
AcDbEntity
  8
0
100
AcDbLine
 10
-12.742011
 20
-0.209458
 30
0.0
 11
-12.749112
 21
-0.06988
 31
0.0
  0
LINE
  5
275
330
1F
100
AcDbEntity
  8
0
100
AcDbLine
 10
12.749112
 20
0.06988
 30
0.0
 11
12.742011
 21
0.209458
 31
0.0
  0
LINE
  5
276
330
1F
100
AcDbEntity
  8
0
100
AcDbLine
 10
7.262813
 20
-0.265158
 30
0.0
 11
7.251424999999999
 21
-0.088508
 31
0.0
  0
LINE
  5
277
330
1F
100
AcDbEntity
  8
0
100
AcDbLine
 10
-19.993961
 20
-8.634459
 30
0.0
 11
-19.998489
 21
-8.567297
 31
0.0
  0
LINE
  5
278
330
1F
100
AcDbEntity
  8
0
100
AcDbLine
 10
19.998489
 20
8.567297
 30
0.0
 11
19.993961
 21
8.634459
 31
0.0
  0
LINE
  5
279
330
1F
100
AcDbEntity
  8
0
100
AcDbLine
 10
-12.727829
 20
-0.348496
 30
0.0
 11
-12.742011
 21
-0.209458
 31
0.0
  0
LINE
  5
27A
330
1F
100
AcDbEntity
  8
0
100
AcDbLine
 10
12.742011
 20
0.209458
 30
0.0
 11
12.727829
 21
0.348496
 31
0.0
  0
LINE
  5
27B
330
1F
100
AcDbEntity
  8
0
100
AcDbLine
 10
-7.257988
 20
0.209458
 30
0.0
 11
-7.272170999999999
 21
0.348496
 31
0.0
  0
LINE
  5
27C
330
1F
100
AcDbEntity
  8
0
100
AcDbLine
 10
-19.986425
 20
-8.70135
 30
0.0
 11
-19.993961
 21
-8.634459
 31
0.0
  0
LINE
  5
27D
330
1F
100
AcDbEntity
  8
0
100
AcDbLine
 10
19.993961
 20
8.634459
 30
0.0
 11
19.986425
 21
8.70135
 31
0.0
  0
LINE
  5
27E
330
1F
100
AcDbEntity
  8
0
100
AcDbLine
 10
7.285543
 20
-0.44071
 30
0.0
 11
7.262813
 21
-0.265158
 31
0.0
  0
LINE
  5
27F
330
1F
100
AcDbEntity
  8
0
100
AcDbLine
 10
-12.706601
 20
-0.486634
 30
0.0
 11
-12.727829
 21
-0.348496
 31
0.0
  0
LINE
  5
280
330
1F
100
AcDbEntity
  8
0
100
AcDbLine
 10
12.727829
 20
0.348496
 30
0.0
 11
12.706601
 21
0.486634
 31
0.0
  0
LINE
  5
281
330
1F
100
AcDbEntity
  8
0
100
AcDbLine
 10
-7.272170999999999
 20
0.348496
 30
0.0
 11
-7.293399
 21
0.486634
 31
0.0
  0
LINE
  5
282
330
1F
100
AcDbEntity
  8
0
100
AcDbLine
 10
-19.975895
 20
-8.767835999999999
 30
0.0
 11
-19.986425
 21
-8.70135
 31
0.0
  0
LINE
  5
283
330
1F
100
AcDbEntity
  8
0
100
AcDbLine
 10
19.986425
 20
8.70135
 30
0.0
 11
19.975895
 21
8.767835999999999
 31
0.0
  0
LINE
  5
284
330
1F
100
AcDbEntity
  8
0
100
AcDbLine
 10
7.31952
 20
-0.614435
 30
0.0
 11
7.285543
 21
-0.44071
 31
0.0
  0
LINE
  5
285
330
1F
100
AcDbEntity
  8
0
100
AcDbLine
 10
-19.962391
 20
-8.833781
 30
0.0
 11
-19.975895
 21
-8.767835999999999
 31
0.0
  0
LINE
  5
286
330
1F
100
AcDbEntity
  8
0
100
AcDbLine
 10
19.975895
 20
8.767835999999999
 30
0.0
 11
19.962391
 21
8.833781
 31
0.0
  0
LINE
  5
287
330
1F
100
AcDbEntity
  8
0
100
AcDbLine
 10
-12.678382
 20
-0.623514
 30
0.0
 11
-12.706601
 21
-0.486634
 31
0.0
  0
LINE
  5
288
330
1F
100
AcDbEntity
  8
0
100
AcDbLine
 10
12.706601
 20
0.486634
 30
0.0
 11
12.678382
 21
0.623514
 31
0.0
  0
LINE
  5
289
330
1F
100
AcDbEntity
  8
0
100
AcDbLine
 10
-7.293399
 20
0.486634
 30
0.0
 11
-7.321618
 21
0.623514
 31
0.0
  0
LINE
  5
28A
330
1F
100
AcDbEntity
  8
0
100
AcDbLine
 10
-19.945944
 20
-8.899054999999999
 30
0.0
 11
-19.962391
 21
-8.833781
 31
0.0
  0
LINE
  5
28B
330
1F
100
AcDbEntity
  8
0
100
AcDbLine
 10
19.962391
 20
8.833781
 30
0.0
 11
19.945944
 21
8.899054999999999
 31
0.0
  0
LINE
  5
28C
330
1F
100
AcDbEntity
  8
0
100
AcDbLine
 10
-12.643246
 20
-0.7587849999999999
 30
0.0
 11
-12.678382
 21
-0.623514
 31
0.0
  0
LINE
  5
28D
330
1F
100
AcDbEntity
  8
0
100
AcDbLine
 10
12.678382
 20
0.623514
 30
0.0
 11
12.643246
 21
0.7587849999999999
 31
0.0
  0
LINE
  5
28E
330
1F
100
AcDbEntity
  8
0
100
AcDbLine
 10
-7.321618
 20
0.623514
 30
0.0
 11
-7.356755
 21
0.7587849999999999
 31
0.0
  0
LINE
  5
28F
330
1F
100
AcDbEntity
  8
0
100
AcDbLine
 10
7.364604
 20
-0.785615
 30
0.0
 11
7.31952
 21
-0.614435
 31
0.0
  0
LINE
  5
290
330
1F
100
AcDbEntity
  8
0
100
AcDbLine
 10
-19.926584
 20
-8.963526
 30
0.0
 11
-19.945944
 21
-8.899054999999999
 31
0.0
  0
LINE
  5
291
330
1F
100
AcDbEntity
  8
0
100
AcDbLine
 10
19.945944
 20
8.899054999999999
 30
0.0
 11
19.926584
 21
8.963526
 31
0.0
  0
LINE
  5
292
330
1F
100
AcDbEntity
  8
0
100
AcDbLine
 10
-7.356755
 20
0.7587849999999999
 30
0.0
 11
-7.398718
 21
0.892095
 31
0.0
  0
LINE
  5
293
330
1F
100
AcDbEntity
  8
0
100
AcDbLine
 10
-12.601282
 20
-0.892095
 30
0.0
 11
-12.643246
 21
-0.7587849999999999
 31
0.0
  0
LINE
  5
294
330
1F
100
AcDbEntity
  8
0
100
AcDbLine
 10
12.643246
 20
0.7587849999999999
 30
0.0
 11
12.601282
 21
0.892095
 31
0.0
  0
LINE
  5
295
330
1F
100
AcDbEntity
  8
0
100
AcDbLine
 10
7.420608
 20
-0.9535389999999999
 30
0.0
 11
7.364604
 21
-0.785615
 31
0.0
  0
LINE
  5
296
330
1F
100
AcDbEntity
  8
0
100
AcDbLine
 10
-19.904352
 20
-9.027061999999999
 30
0.0
 11
-19.926584
 21
-8.963526
 31
0.0
  0
LINE
  5
297
330
1F
100
AcDbEntity
  8
0
100
AcDbLine
 10
19.926584
 20
8.963526
 30
0.0
 11
19.904352
 21
9.027061999999999
 31
0.0
  0
LINE
  5
298
330
1F
100
AcDbEntity
  8
0
100
AcDbLine
 10
-12.552599
 20
-1.023101
 30
0.0
 11
-12.601282
 21
-0.892095
 31
0.0
  0
LINE
  5
299
330
1F
100
AcDbEntity
  8
0
100
AcDbLine
 10
12.601282
 20
0.892095
 30
0.0
 11
12.552599
 21
1.023101
 31
0.0
  0
LINE
  5
29A
330
1F
100
AcDbEntity
  8
0
100
AcDbLine
 10
-7.398718
 20
0.892095
 30
0.0
 11
-7.447400999999999
 21
1.023101
 31
0.0
  0
LINE
  5
29B
330
1F
100
AcDbEntity
  8
0
100
AcDbLine
 10
-19.879292
 20
-9.089538
 30
0.0
 11
-19.904352
 21
-9.027061999999999
 31
0.0
  0
LINE
  5
29C
330
1F
100
AcDbEntity
  8
0
100
AcDbLine
 10
19.904352
 20
9.027061999999999
 30
0.0
 11
19.879292
 21
9.089538
 31
0.0
  0
LINE
  5
29D
330
1F
100
AcDbEntity
  8
0
100
AcDbLine
 10
7.487298999999999
 20
-1.117512
 30
0.0
 11
7.420608
 21
-0.9535389999999999
 31
0.0
  0
LINE
  5
29E
330
1F
100
AcDbEntity
  8
0
100
AcDbLine
 10
-12.497324
 20
-1.151465
 30
0.0
 11
-12.552599
 21
-1.023101
 31
0.0
  0
LINE
  5
29F
330
1F
100
AcDbEntity
  8
0
100
AcDbLine
 10
12.552599
 20
1.023101
 30
0.0
 11
12.497324
 21
1.151465
 31
0.0
  0
LINE
  5
2A0
330
1F
100
AcDbEntity
  8
0
100
AcDbLine
 10
-7.447400999999999
 20
1.023101
 30
0.0
 11
-7.502675999999999
 21
1.151465
 31
0.0
  0
LINE
  5
2A1
330
1F
100
AcDbEntity
  8
0
100
AcDbLine
 10
-19.851454
 20
-9.150826
 30
0.0
 11
-19.879292
 21
-9.089538
 31
0.0
  0
LINE
  5
2A2
330
1F
100
AcDbEntity
  8
0
100
AcDbLine
 10
19.879292
 20
9.089538
 30
0.0
 11
19.851454
 21
9.150826
 31
0.0
  0
LINE
  5
2A3
330
1F
100
AcDbEntity
  8
0
100
AcDbLine
 10
7.564400999999999
 20
-1.276855
 30
0.0
 11
7.487298999999999
 21
-1.117512
 31
0.0
  0
LINE
  5
2A4
330
1F
100
AcDbEntity
  8
0
100
AcDbLine
 10
-7.502675999999999
 20
1.151465
 30
0.0
 11
-7.564400999999999
 21
1.276855
 31
0.0
  0
LINE
  5
2A5
330
1F
100
AcDbEntity
  8
0
100
AcDbLine
 10
-12.435598
 20
-1.276855
 30
0.0
 11
-12.497324
 21
-1.151465
 31
0.0
  0
LINE
  5
2A6
330
1F
100
AcDbEntity
  8
0
100
AcDbLine
 10
12.497324
 20
1.151465
 30
0.0
 11
12.435598
 21
1.276855
 31
0.0
  0
LINE
  5
2A7
330
1F
100
AcDbEntity
  8
0
100
AcDbLine
 10
-19.820892
 20
-9.210803
 30
0.0
 11
-19.851454
 21
-9.150826
 31
0.0
  0
LINE
  5
2A8
330
1F
100
AcDbEntity
  8
0
100
AcDbLine
 10
19.851454
 20
9.150826
 30
0.0
 11
19.820892
 21
9.210803
 31
0.0
  0
LINE
  5
2A9
330
1F
100
AcDbEntity
  8
0
100
AcDbLine
 10
-19.787674
 20
-9.269349
 30
0.0
 11
-19.820892
 21
-9.210803
 31
0.0
  0
LINE
  5
2AA
330
1F
100
AcDbEntity
  8
0
100
AcDbLine
 10
19.820892
 20
9.210803
 30
0.0
 11
19.787674
 21
9.269349
 31
0.0
  0
LINE
  5
2AB
330
1F
100
AcDbEntity
  8
0
100
AcDbLine
 10
14.5
 20
-0.8660249999999999
 30
0.0
 11
14.0
 21
0.0
 31
0.0
  0
LINE
  5
2AC
330
1F
100
AcDbEntity
  8
0
100
AcDbLine
 10
-5.5
 20
-0.8660249999999999
 30
0.0
 11
-6.0
 21
0.0
 31
0.0
  0
LINE
  5
2AD
330
1F
100
AcDbEntity
  8
0
100
AcDbLine
 10
-14.0
 20
0.0
 30
0.0
 11
-14.5
 21
0.8660249999999999
 31
0.0
  0
LINE
  5
2AE
330
1F
100
AcDbEntity
  8
0
100
AcDbLine
 10
6.0
 20
0.0
 30
0.0
 11
5.5
 21
0.8660249999999999
 31
0.0
  0
LINE
  5
2AF
330
1F
100
AcDbEntity
  8
0
100
AcDbLine
 10
-19.75186
 20
-9.326345
 30
0.0
 11
-19.787674
 21
-9.269349
 31
0.0
  0
LINE
  5
2B0
330
1F
100
AcDbEntity
  8
0
100
AcDbLine
 10
19.787674
 20
9.269349
 30
0.0
 11
19.75186
 21
9.326345
 31
0.0
  0
LINE
  5
2B1
330
1F
100
AcDbEntity
  8
0
100
AcDbLine
 10
7.128679
 20
-2.001379
 30
0.0
 11
7.052327
 21
-1.887121
 31
0.0
  0
LINE
  5
2B2
330
1F
100
AcDbEntity
  8
0
100
AcDbLine
 10
-12.871321
 20
-2.001379
 30
0.0
 11
-12.947673
 21
-1.887121
 31
0.0
  0
LINE
  5
2B3
330
1F
100
AcDbEntity
  8
0
100
AcDbLine
 10
12.947673
 20
1.887121
 30
0.0
 11
12.871321
 21
2.001379
 31
0.0
  0
LINE
  5
2B4
330
1F
100
AcDbEntity
  8
0
100
AcDbLine
 10
-7.052327
 20
1.887121
 30
0.0
 11
-7.128679
 21
2.001379
 31
0.0
  0
LINE
  5
2B5
330
1F
100
AcDbEntity
  8
0
100
AcDbLine
 10
-19.713526
 20
-9.381677999999999
 30
0.0
 11
-19.75186
 21
-9.326345
 31
0.0
  0
LINE
  5
2B6
330
1F
100
AcDbEntity
  8
0
100
AcDbLine
 10
19.75186
 20
9.326345
 30
0.0
 11
19.713526
 21
9.381677999999999
 31
0.0
  0
LINE
  5
2B7
330
1F
100
AcDbEntity
  8
0
100
AcDbLine
 10
7.209457
 20
-2.112551
 30
0.0
 11
7.128679
 21
-2.001379
 31
0.0
  0
LINE
  5
2B8
330
1F
100
AcDbEntity
  8
0
100
AcDbLine
 10
-12.790543
 20
-2.112551
 30
0.0
 11
-12.871321
 21
-2.001379
 31
0.0
  0
LINE
  5
2B9
330
1F
100
AcDbEntity
  8
0
100
AcDbLine
 10
12.871321
 20
2.001379
 30
0.0
 11
12.790543
 21
2.112551
 31
0.0
  0
LINE
  5
2BA
330
1F
100
AcDbEntity
  8
0
100
AcDbLine
 10
-7.128679
 20
2.001379
 30
0.0
 11
-7.209457
 21
2.112551
 31
0.0
  0
LINE
  5
2BB
330
1F
100
AcDbEntity
  8
0
100
AcDbLine
 10
-19.672747
 20
-9.435234999999999
 30
0.0
 11
-19.713526
 21
-9.381677999999999
 31
0.0
  0
LINE
  5
2BC
330
1F
100
AcDbEntity
  8
0
100
AcDbLine
 10
19.713526
 20
9.381677999999999
 30
0.0
 11
19.672747
 21
9.435234999999999
 31
0.0
  0
LINE
  5
2BD
330
1F
100
AcDbEntity
  8
0
100
AcDbLine
 10
7.294537999999999
 20
-2.220467
 30
0.0
 11
7.209457
 21
-2.112551
 31
0.0
  0
LINE
  5
2BE
330
1F
100
AcDbEntity
  8
0
100
AcDbLine
 10
-12.705462
 20
-2.220467
 30
0.0
 11
-12.790543
 21
-2.112551
 31
0.0
  0
LINE
  5
2BF
330
1F
100
AcDbEntity
  8
0
100
AcDbLine
 10
12.790543
 20
2.112551
 30
0.0
 11
12.705462
 21
2.220467
 31
0.0
  0
LINE
  5
2C0
330
1F
100
AcDbEntity
  8
0
100
AcDbLine
 10
-7.209457
 20
2.112551
 30
0.0
 11
-7.294537999999999
 21
2.220467
 31
0.0
  0
LINE
  5
2C1
330
1F
100
AcDbEntity
  8
0
100
AcDbLine
 10
-19.629606
 20
-9.486908
 30
0.0
 11
-19.672747
 21
-9.435234999999999
 31
0.0
  0
LINE
  5
2C2
330
1F
100
AcDbEntity
  8
0
100
AcDbLine
 10
19.672747
 20
9.435234999999999
 30
0.0
 11
19.629606
 21
9.486908
 31
0.0
  0
LINE
  5
2C3
330
1F
100
AcDbEntity
  8
0
100
AcDbLine
 10
-7.052327
 20
-1.887121
 30
0.0
 11
-7.564400999999999
 21
-1.276855
 31
0.0
  0
LINE
  5
2C4
330
1F
100
AcDbEntity
  8
0
100
AcDbLine
 10
7.564400999999999
 20
1.276855
 30
0.0
 11
7.052327
 21
1.887121
 31
0.0
  0
LINE
  5
2C5
330
1F
100
AcDbEntity
  8
0
100
AcDbLine
 10
12.947673
 20
-1.887121
 30
0.0
 11
12.435598
 21
-1.276855
 31
0.0
  0
LINE
  5
2C6
330
1F
100
AcDbEntity
  8
0
100
AcDbLine
 10
-12.435598
 20
1.276855
 30
0.0
 11
-12.947673
 21
1.887121
 31
0.0
  0
LINE
  5
2C7
330
1F
100
AcDbEntity
  8
0
100
AcDbLine
 10
7.383788
 20
-2.32496
 30
0.0
 11
7.294537999999999
 21
-2.220467
 31
0.0
  0
LINE
  5
2C8
330
1F
100
AcDbEntity
  8
0
100
AcDbLine
 10
-12.616212
 20
-2.32496
 30
0.0
 11
-12.705462
 21
-2.220467
 31
0.0
  0
LINE
  5
2C9
330
1F
100
AcDbEntity
  8
0
100
AcDbLine
 10
12.705462
 20
2.220467
 30
0.0
 11
12.616212
 21
2.32496
 31
0.0
  0
LINE
  5
2CA
330
1F
100
AcDbEntity
  8
0
100
AcDbLine
 10
-7.294537999999999
 20
2.220467
 30
0.0
 11
-7.383788
 21
2.32496
 31
0.0
  0
LINE
  5
2CB
330
1F
100
AcDbEntity
  8
0
100
AcDbLine
 10
-19.584192
 20
-9.536594
 30
0.0
 11
-19.629606
 21
-9.486908
 31
0.0
  0
LINE
  5
2CC
330
1F
100
AcDbEntity
  8
0
100
AcDbLine
 10
19.629606
 20
9.486908
 30
0.0
 11
19.584192
 21
9.536594
 31
0.0
  0
LINE
  5
2CD
330
1F
100
AcDbEntity
  8
0
100
AcDbLine
 10
7.477072
 20
-2.425868
 30
0.0
 11
7.383788
 21
-2.32496
 31
0.0
  0
LINE
  5
2CE
330
1F
100
AcDbEntity
  8
0
100
AcDbLine
 10
-7.383788
 20
2.32496
 30
0.0
 11
-7.477072
 21
2.425868
 31
0.0
  0
LINE
  5
2CF
330
1F
100
AcDbEntity
  8
0
100
AcDbLine
 10
-12.522927
 20
-2.425868
 30
0.0
 11
-12.616212
 21
-2.32496
 31
0.0
  0
LINE
  5
2D0
330
1F
100
AcDbEntity
  8
0
100
AcDbLine
 10
12.616212
 20
2.32496
 30
0.0
 11
12.522927
 21
2.425868
 31
0.0
  0
LINE
  5
2D1
330
1F
100
AcDbEntity
  8
0
100
AcDbLine
 10
-19.536594
 20
-9.584192
 30
0.0
 11
-19.584192
 21
-9.536594
 31
0.0
  0
LINE
  5
2D2
330
1F
100
AcDbEntity
  8
0
100
AcDbLine
 10
16.0
 20
-7.060659999999999
 30
0.0
 11
13.43934
 21
-4.5
 31
0.0
  0
LINE
  5
2D3
330
1F
100
AcDbEntity
  8
0
100
AcDbLine
 10
-14.5
 20
3.43934
 30
0.0
 11
-17.060659
 21
6.0
 31
0.0
  0
LINE
  5
2D4
330
1F
100
AcDbEntity
  8
0
100
AcDbLine
 10
-4.0
 20
-7.060659999999999
 30
0.0
 11
-6.560659999999999
 21
-4.5
 31
0.0
  0
LINE
  5
2D5
330
1F
100
AcDbEntity
  8
0
100
AcDbLine
 10
5.5
 20
3.43934
 30
0.0
 11
2.5
 21
6.43934
 31
0.0
  0
LINE
  5
2D6
330
1F
100
AcDbEntity
  8
0
100
AcDbLine
 10
6.560659999999999
 20
4.5
 30
0.0
 11
4.0
 21
7.060659999999999
 31
0.0
  0
LINE
  5
2D7
330
1F
100
AcDbEntity
  8
0
100
AcDbLine
 10
17.060659
 20
-6.0
 30
0.0
 11
14.5
 21
-3.43934
 31
0.0
  0
LINE
  5
2D8
330
1F
100
AcDbEntity
  8
0
100
AcDbLine
 10
-13.43934
 20
4.5
 30
0.0
 11
-16.0
 21
7.060659999999999
 31
0.0
  0
LINE
  5
2D9
330
1F
100
AcDbEntity
  8
0
100
AcDbLine
 10
-2.5
 20
-6.43934
 30
0.0
 11
-5.5
 21
-3.43934
 31
0.0
  0
LINE
  5
2DA
330
1F
100
AcDbEntity
  8
0
100
AcDbLine
 10
19.584192
 20
9.536594
 30
0.0
 11
19.536594
 21
9.584192
 31
0.0
  0
LINE
  5
2DB
330
1F
100
AcDbEntity
  8
0
100
AcDbLine
 10
-12.425755
 20
-2.523037
 30
0.0
 11
-12.522927
 21
-2.425868
 31
0.0
  0
LINE
  5
2DC
330
1F
100
AcDbEntity
  8
0
100
AcDbLine
 10
12.522927
 20
2.425868
 30
0.0
 11
12.425755
 21
2.523037
 31
0.0
  0
LINE
  5
2DD
330
1F
100
AcDbEntity
  8
0
100
AcDbLine
 10
7.574244999999999
 20
-2.523037
 30
0.0
 11
7.477072
 21
-2.425868
 31
0.0
  0
LINE
  5
2DE
330
1F
100
AcDbEntity
  8
0
100
AcDbLine
 10
-7.477072
 20
2.425868
 30
0.0
 11
-7.574244999999999
 21
2.523037
 31
0.0
  0
LINE
  5
2DF
330
1F
100
AcDbEntity
  8
0
100
AcDbLine
 10
7.675158
 20
-2.616316
 30
0.0
 11
7.574244999999999
 21
-2.523037
 31
0.0
  0
LINE
  5
2E0
330
1F
100
AcDbEntity
  8
0
100
AcDbLine
 10
-7.574244999999999
 20
2.523037
 30
0.0
 11
-7.675158
 21
2.616316
 31
0.0
  0
LINE
  5
2E1
330
1F
100
AcDbEntity
  8
0
100
AcDbLine
 10
-12.324841
 20
-2.616316
 30
0.0
 11
-12.425755
 21
-2.523037
 31
0.0
  0
LINE
  5
2E2
330
1F
100
AcDbEntity
  8
0
100
AcDbLine
 10
12.425755
 20
2.523037
 30
0.0
 11
12.324841
 21
2.616316
 31
0.0
  0
LINE
  5
2E3
330
1F
100
AcDbEntity
  8
0
100
AcDbLine
 10
-19.486908
 20
-9.629607
 30
0.0
 11
-19.536594
 21
-9.584192
 31
0.0
  0
LINE
  5
2E4
330
1F
100
AcDbEntity
  8
0
100
AcDbLine
 10
19.536594
 20
9.584192
 30
0.0
 11
19.486908
 21
9.629607
 31
0.0
  0
LINE
  5
2E5
330
1F
100
AcDbEntity
  8
0
100
AcDbLine
 10
-12.220345
 20
-2.705562
 30
0.0
 11
-12.324841
 21
-2.616316
 31
0.0
  0
LINE
  5
2E6
330
1F
100
AcDbEntity
  8
0
100
AcDbLine
 10
12.324841
 20
2.616316
 30
0.0
 11
12.220345
 21
2.705562
 31
0.0
  0
LINE
  5
2E7
330
1F
100
AcDbEntity
  8
0
100
AcDbLine
 10
7.779655
 20
-2.705562
 30
0.0
 11
7.675158
 21
-2.616316
 31
0.0
  0
LINE
  5
2E8
330
1F
100
AcDbEntity
  8
0
100
AcDbLine
 10
-7.675158
 20
2.616316
 30
0.0
 11
-7.779655
 21
2.705562
 31
0.0
  0
LINE
  5
2E9
330
1F
100
AcDbEntity
  8
0
100
AcDbLine
 10
11.886989
 20
-2.947757
 30
0.0
 11
11.276711
 21
-2.435674
 31
0.0
  0
LINE
  5
2EA
330
1F
100
AcDbEntity
  8
0
100
AcDbLine
 10
-8.113011
 20
-2.947757
 30
0.0
 11
-8.723289
 21
-2.435674
 31
0.0
  0
LINE
  5
2EB
330
1F
100
AcDbEntity
  8
0
100
AcDbLine
 10
8.723289
 20
2.435674
 30
0.0
 11
8.113011
 21
2.947757
 31
0.0
  0
LINE
  5
2EC
330
1F
100
AcDbEntity
  8
0
100
AcDbLine
 10
-11.276711
 20
2.435674
 30
0.0
 11
-11.886989
 21
2.947757
 31
0.0
  0
LINE
  5
2ED
330
1F
100
AcDbEntity
  8
0
100
AcDbLine
 10
-19.435234
 20
-9.672748
 30
0.0
 11
-19.486908
 21
-9.629607
 31
0.0
  0
LINE
  5
2EE
330
1F
100
AcDbEntity
  8
0
100
AcDbLine
 10
19.486908
 20
9.629607
 30
0.0
 11
19.435234
 21
9.672748
 31
0.0
  0
LINE
  5
2EF
330
1F
100
AcDbEntity
  8
0
100
AcDbLine
 10
7.887574
 20
-2.790637
 30
0.0
 11
7.779655
 21
-2.705562
 31
0.0
  0
LINE
  5
2F0
330
1F
100
AcDbEntity
  8
0
100
AcDbLine
 10
-12.112426
 20
-2.790637
 30
0.0
 11
-12.220345
 21
-2.705562
 31
0.0
  0
LINE
  5
2F1
330
1F
100
AcDbEntity
  8
0
100
AcDbLine
 10
12.220345
 20
2.705562
 30
0.0
 11
12.112426
 21
2.790637
 31
0.0
  0
LINE
  5
2F2
330
1F
100
AcDbEntity
  8
0
100
AcDbLine
 10
-7.779655
 20
2.705562
 30
0.0
 11
-7.887574
 21
2.790637
 31
0.0
  0
LINE
  5
2F3
330
1F
100
AcDbEntity
  8
0
100
AcDbLine
 10
-19.381678
 20
-9.713526
 30
0.0
 11
-19.435234
 21
-9.672748
 31
0.0
  0
LINE
  5
2F4
330
1F
100
AcDbEntity
  8
0
100
AcDbLine
 10
19.435234
 20
9.672748
 30
0.0
 11
19.381678
 21
9.713526
 31
0.0
  0
LINE
  5
2F5
330
1F
100
AcDbEntity
  8
0
100
AcDbLine
 10
7.998749999999999
 20
-2.871411
 30
0.0
 11
7.887574
 21
-2.790637
 31
0.0
  0
LINE
  5
2F6
330
1F
100
AcDbEntity
  8
0
100
AcDbLine
 10
-7.887574
 20
2.790637
 30
0.0
 11
-7.998749999999999
 21
2.871411
 31
0.0
  0
LINE
  5
2F7
330
1F
100
AcDbEntity
  8
0
100
AcDbLine
 10
-12.001249
 20
-2.871411
 30
0.0
 11
-12.112426
 21
-2.790637
 31
0.0
  0
LINE
  5
2F8
330
1F
100
AcDbEntity
  8
0
100
AcDbLine
 10
12.112426
 20
2.790637
 30
0.0
 11
12.001249
 21
2.871411
 31
0.0
  0
LINE
  5
2F9
330
1F
100
AcDbEntity
  8
0
100
AcDbLine
 10
-19.326345
 20
-9.751859999999999
 30
0.0
 11
-19.381678
 21
-9.713526
 31
0.0
  0
LINE
  5
2FA
330
1F
100
AcDbEntity
  8
0
100
AcDbLine
 10
19.381678
 20
9.713526
 30
0.0
 11
19.326345
 21
9.751859999999999
 31
0.0
  0
LINE
  5
2FB
330
1F
100
AcDbEntity
  8
0
100
AcDbLine
 10
-11.886989
 20
-2.947757
 30
0.0
 11
-12.001249
 21
-2.871411
 31
0.0
  0
LINE
  5
2FC
330
1F
100
AcDbEntity
  8
0
100
AcDbLine
 10
12.001249
 20
2.871411
 30
0.0
 11
11.886989
 21
2.947757
 31
0.0
  0
LINE
  5
2FD
330
1F
100
AcDbEntity
  8
0
100
AcDbLine
 10
8.113011
 20
-2.947757
 30
0.0
 11
7.998749999999999
 21
-2.871411
 31
0.0
  0
LINE
  5
2FE
330
1F
100
AcDbEntity
  8
0
100
AcDbLine
 10
-7.998749999999999
 20
2.871411
 30
0.0
 11
-8.113011
 21
2.947757
 31
0.0
  0
LINE
  5
2FF
330
1F
100
AcDbEntity
  8
0
100
AcDbLine
 10
-19.269348
 20
-9.787673
 30
0.0
 11
-19.326345
 21
-9.751859999999999
 31
0.0
  0
LINE
  5
300
330
1F
100
AcDbEntity
  8
0
100
AcDbLine
 10
19.326345
 20
9.751859999999999
 30
0.0
 11
19.269348
 21
9.787673
 31
0.0
  0
LINE
  5
301
330
1F
100
AcDbEntity
  8
0
100
AcDbLine
 10
-9.133975
 20
-4.5
 30
0.0
 11
-10.0
 21
-4.0
 31
0.0
  0
LINE
  5
302
330
1F
100
AcDbEntity
  8
0
100
AcDbLine
 10
10.866025
 20
-4.5
 30
0.0
 11
10.0
 21
-4.0
 31
0.0
  0
LINE
  5
303
330
1F
100
AcDbEntity
  8
0
100
AcDbLine
 10
10.0
 20
4.0
 30
0.0
 11
9.133975
 21
4.5
 31
0.0
  0
LINE
  5
304
330
1F
100
AcDbEntity
  8
0
100
AcDbLine
 10
-10.0
 20
4.0
 30
0.0
 11
-10.866025
 21
4.5
 31
0.0
  0
LINE
  5
305
330
1F
100
AcDbEntity
  8
0
100
AcDbLine
 10
-19.210802
 20
-9.820893
 30
0.0
 11
-19.269348
 21
-9.787673
 31
0.0
  0
LINE
  5
306
330
1F
100
AcDbEntity
  8
0
100
AcDbLine
 10
19.269348
 20
9.787673
 30
0.0
 11
19.210802
 21
9.820893
 31
0.0
  0
LINE
  5
307
330
1F
100
AcDbEntity
  8
0
100
AcDbLine
 10
-19.150826
 20
-9.851453
 30
0.0
 11
-19.210802
 21
-9.820893
 31
0.0
  0
LINE
  5
308
330
1F
100
AcDbEntity
  8
0
100
AcDbLine
 10
19.210802
 20
9.820893
 30
0.0
 11
19.150826
 21
9.851453
 31
0.0
  0
LINE
  5
309
330
1F
100
AcDbEntity
  8
0
100
AcDbLine
 10
8.848666
 20
-2.497385
 30
0.0
 11
8.723289
 21
-2.435674
 31
0.0
  0
LINE
  5
30A
330
1F
100
AcDbEntity
  8
0
100
AcDbLine
 10
-11.151334
 20
-2.497385
 30
0.0
 11
-11.276711
 21
-2.435674
 31
0.0
  0
LINE
  5
30B
330
1F
100
AcDbEntity
  8
0
100
AcDbLine
 10
11.276711
 20
2.435674
 30
0.0
 11
11.151334
 21
2.497385
 31
0.0
  0
LINE
  5
30C
330
1F
100
AcDbEntity
  8
0
100
AcDbLine
 10
-8.723289
 20
2.435674
 30
0.0
 11
-8.848666
 21
2.497385
 31
0.0
  0
LINE
  5
30D
330
1F
100
AcDbEntity
  8
0
100
AcDbLine
 10
-19.089537
 20
-9.879292
 30
0.0
 11
-19.150826
 21
-9.851453
 31
0.0
  0
LINE
  5
30E
330
1F
100
AcDbEntity
  8
0
100
AcDbLine
 10
19.150826
 20
9.851453
 30
0.0
 11
19.089537
 21
9.879292
 31
0.0
  0
LINE
  5
30F
330
1F
100
AcDbEntity
  8
0
100
AcDbLine
 10
8.977017
 20
-2.552647
 30
0.0
 11
8.848666
 21
-2.497385
 31
0.0
  0
LINE
  5
310
330
1F
100
AcDbEntity
  8
0
100
AcDbLine
 10
-11.022983
 20
-2.552647
 30
0.0
 11
-11.151334
 21
-2.497385
 31
0.0
  0
LINE
  5
311
330
1F
100
AcDbEntity
  8
0
100
AcDbLine
 10
11.151334
 20
2.497385
 30
0.0
 11
11.022983
 21
2.552647
 31
0.0
  0
LINE
  5
312
330
1F
100
AcDbEntity
  8
0
100
AcDbLine
 10
-8.848666
 20
2.497385
 30
0.0
 11
-8.977017
 21
2.552647
 31
0.0
  0
LINE
  5
313
330
1F
100
AcDbEntity
  8
0
100
AcDbLine
 10
-19.027061
 20
-9.904352
 30
0.0
 11
-19.089537
 21
-9.879292
 31
0.0
  0
LINE
  5
314
330
1F
100
AcDbEntity
  8
0
100
AcDbLine
 10
19.089537
 20
9.879292
 30
0.0
 11
19.027061
 21
9.904352
 31
0.0
  0
LINE
  5
315
330
1F
100
AcDbEntity
  8
0
100
AcDbLine
 10
9.10801
 20
-2.601318
 30
0.0
 11
8.977017
 21
-2.552647
 31
0.0
  0
LINE
  5
316
330
1F
100
AcDbEntity
  8
0
100
AcDbLine
 10
-10.89199
 20
-2.601318
 30
0.0
 11
-11.022983
 21
-2.552647
 31
0.0
  0
LINE
  5
317
330
1F
100
AcDbEntity
  8
0
100
AcDbLine
 10
11.022983
 20
2.552647
 30
0.0
 11
10.89199
 21
2.601318
 31
0.0
  0
LINE
  5
318
330
1F
100
AcDbEntity
  8
0
100
AcDbLine
 10
-8.977017
 20
2.552647
 30
0.0
 11
-9.10801
 21
2.601318
 31
0.0
  0
LINE
  5
319
330
1F
100
AcDbEntity
  8
0
100
AcDbLine
 10
-18.963526
 20
-9.926585
 30
0.0
 11
-19.027061
 21
-9.904352
 31
0.0
  0
LINE
  5
31A
330
1F
100
AcDbEntity
  8
0
100
AcDbLine
 10
19.027061
 20
9.904352
 30
0.0
 11
18.963526
 21
9.926585
 31
0.0
  0
LINE
  5
31B
330
1F
100
AcDbEntity
  8
0
100
AcDbLine
 10
9.241304999999999
 20
-2.643271
 30
0.0
 11
9.10801
 21
-2.601318
 31
0.0
  0
LINE
  5
31C
330
1F
100
AcDbEntity
  8
0
100
AcDbLine
 10
-10.758695
 20
-2.643271
 30
0.0
 11
-10.89199
 21
-2.601318
 31
0.0
  0
LINE
  5
31D
330
1F
100
AcDbEntity
  8
0
100
AcDbLine
 10
10.89199
 20
2.601318
 30
0.0
 11
10.758695
 21
2.643271
 31
0.0
  0
LINE
  5
31E
330
1F
100
AcDbEntity
  8
0
100
AcDbLine
 10
-9.10801
 20
2.601318
 30
0.0
 11
-9.241304999999999
 21
2.643271
 31
0.0
  0
LINE
  5
31F
330
1F
100
AcDbEntity
  8
0
100
AcDbLine
 10
-18.899055
 20
-9.945943999999999
 30
0.0
 11
-18.963526
 21
-9.926585
 31
0.0
  0
LINE
  5
320
330
1F
100
AcDbEntity
  8
0
100
AcDbLine
 10
18.963526
 20
9.926585
 30
0.0
 11
18.899055
 21
9.945943999999999
 31
0.0
  0
LINE
  5
321
330
1F
100
AcDbEntity
  8
0
100
AcDbLine
 10
9.37656
 20
-2.678399
 30
0.0
 11
9.241304999999999
 21
-2.643271
 31
0.0
  0
LINE
  5
322
330
1F
100
AcDbEntity
  8
0
100
AcDbLine
 10
-10.62344
 20
-2.678399
 30
0.0
 11
-10.758695
 21
-2.643271
 31
0.0
  0
LINE
  5
323
330
1F
100
AcDbEntity
  8
0
100
AcDbLine
 10
10.758695
 20
2.643271
 30
0.0
 11
10.62344
 21
2.678399
 31
0.0
  0
LINE
  5
324
330
1F
100
AcDbEntity
  8
0
100
AcDbLine
 10
-9.241304999999999
 20
2.643271
 30
0.0
 11
-9.37656
 21
2.678399
 31
0.0
  0
LINE
  5
325
330
1F
100
AcDbEntity
  8
0
100
AcDbLine
 10
-18.833782
 20
-9.962392
 30
0.0
 11
-18.899055
 21
-9.945943999999999
 31
0.0
  0
LINE
  5
326
330
1F
100
AcDbEntity
  8
0
100
AcDbLine
 10
18.899055
 20
9.945943999999999
 30
0.0
 11
18.833782
 21
9.962392
 31
0.0
  0
LINE
  5
327
330
1F
100
AcDbEntity
  8
0
100
AcDbLine
 10
9.513425
 20
-2.706611
 30
0.0
 11
9.37656
 21
-2.678399
 31
0.0
  0
LINE
  5
328
330
1F
100
AcDbEntity
  8
0
100
AcDbLine
 10
-10.486575
 20
-2.706611
 30
0.0
 11
-10.62344
 21
-2.678399
 31
0.0
  0
LINE
  5
329
330
1F
100
AcDbEntity
  8
0
100
AcDbLine
 10
10.62344
 20
2.678399
 30
0.0
 11
10.486575
 21
2.706611
 31
0.0
  0
LINE
  5
32A
330
1F
100
AcDbEntity
  8
0
100
AcDbLine
 10
-9.37656
 20
2.678399
 30
0.0
 11
-9.513425
 21
2.706611
 31
0.0
  0
LINE
  5
32B
330
1F
100
AcDbEntity
  8
0
100
AcDbLine
 10
-18.767836
 20
-9.975894
 30
0.0
 11
-18.833782
 21
-9.962392
 31
0.0
  0
LINE
  5
32C
330
1F
100
AcDbEntity
  8
0
100
AcDbLine
 10
18.833782
 20
9.962392
 30
0.0
 11
18.767836
 21
9.975894
 31
0.0
  0
LINE
  5
32D
330
1F
100
AcDbEntity
  8
0
100
AcDbLine
 10
-18.701349
 20
-9.986424
 30
0.0
 11
-18.767836
 21
-9.975894
 31
0.0
  0
LINE
  5
32E
330
1F
100
AcDbEntity
  8
0
100
AcDbLine
 10
18.767836
 20
9.975894
 30
0.0
 11
18.701349
 21
9.986424
 31
0.0
  0
LINE
  5
32F
330
1F
100
AcDbEntity
  8
0
100
AcDbLine
 10
9.651546
 20
-2.727834
 30
0.0
 11
9.513425
 21
-2.706611
 31
0.0
  0
LINE
  5
330
330
1F
100
AcDbEntity
  8
0
100
AcDbLine
 10
-10.348454
 20
-2.727834
 30
0.0
 11
-10.486575
 21
-2.706611
 31
0.0
  0
LINE
  5
331
330
1F
100
AcDbEntity
  8
0
100
AcDbLine
 10
10.486575
 20
2.706611
 30
0.0
 11
10.348454
 21
2.727834
 31
0.0
  0
LINE
  5
332
330
1F
100
AcDbEntity
  8
0
100
AcDbLine
 10
-9.513425
 20
2.706611
 30
0.0
 11
-9.651546
 21
2.727834
 31
0.0
  0
LINE
  5
333
330
1F
100
AcDbEntity
  8
0
100
AcDbLine
 10
-18.634459
 20
-9.993960999999999
 30
0.0
 11
-18.701349
 21
-9.986424
 31
0.0
  0
LINE
  5
334
330
1F
100
AcDbEntity
  8
0
100
AcDbLine
 10
18.701349
 20
9.986424
 30
0.0
 11
18.634459
 21
9.993960999999999
 31
0.0
  0
LINE
  5
335
330
1F
100
AcDbEntity
  8
0
100
AcDbLine
 10
9.790567
 20
-2.742013
 30
0.0
 11
9.651546
 21
-2.727834
 31
0.0
  0
LINE
  5
336
330
1F
100
AcDbEntity
  8
0
100
AcDbLine
 10
-10.209433
 20
-2.742013
 30
0.0
 11
-10.348454
 21
-2.727834
 31
0.0
  0
LINE
  5
337
330
1F
100
AcDbEntity
  8
0
100
AcDbLine
 10
10.348454
 20
2.727834
 30
0.0
 11
10.209433
 21
2.742013
 31
0.0
  0
LINE
  5
338
330
1F
100
AcDbEntity
  8
0
100
AcDbLine
 10
-9.651546
 20
2.727834
 30
0.0
 11
-9.790567
 21
2.742013
 31
0.0
  0
LINE
  5
339
330
1F
100
AcDbEntity
  8
0
100
AcDbLine
 10
-18.567297
 20
-9.998489
 30
0.0
 11
-18.634459
 21
-9.993960999999999
 31
0.0
  0
LINE
  5
33A
330
1F
100
AcDbEntity
  8
0
100
AcDbLine
 10
18.634459
 20
9.993960999999999
 30
0.0
 11
18.567297
 21
9.998489
 31
0.0
  0
LINE
  5
33B
330
1F
100
AcDbEntity
  8
0
100
AcDbLine
 10
9.930128999999999
 20
-2.749112
 30
0.0
 11
9.790567
 21
-2.742013
 31
0.0
  0
LINE
  5
33C
330
1F
100
AcDbEntity
  8
0
100
AcDbLine
 10
-10.069871
 20
-2.749112
 30
0.0
 11
-10.209433
 21
-2.742013
 31
0.0
  0
LINE
  5
33D
330
1F
100
AcDbEntity
  8
0
100
AcDbLine
 10
10.209433
 20
2.742013
 30
0.0
 11
10.069871
 21
2.749112
 31
0.0
  0
LINE
  5
33E
330
1F
100
AcDbEntity
  8
0
100
AcDbLine
 10
-9.790567
 20
2.742013
 30
0.0
 11
-9.930128999999999
 21
2.749112
 31
0.0
  0
LINE
  5
33F
330
1F
100
AcDbEntity
  8
0
100
AcDbLine
 10
-18.5
 20
-10.0
 30
0.0
 11
-18.567297
 21
-9.998489
 31
0.0
  0
LINE
  5
340
330
1F
100
AcDbEntity
  8
0
100
AcDbLine
 10
18.567297
 20
9.998489
 30
0.0
 11
18.5
 21
10.0
 31
0.0
  0
LINE
  5
341
330
1F
100
AcDbEntity
  8
0
100
AcDbLine
 10
-18.5
 20
-10.0
 30
0.0
 11
-13.5
 21
-10.0
 31
0.0
  0
LINE
  5
342
330
1F
100
AcDbEntity
  8
0
100
AcDbLine
 10
-6.5
 20
-10.0
 30
0.0
 11
6.5
 21
-10.0
 31
0.0
  0
LINE
  5
343
330
1F
100
AcDbEntity
  8
0
100
AcDbLine
 10
13.5
 20
-10.0
 30
0.0
 11
18.5
 21
-10.0
 31
0.0
  0
LINE
  5
344
330
1F
100
AcDbEntity
  8
0
100
AcDbLine
 10
-13.5
 20
-9.5
 30
0.0
 11
-13.0
 21
-9.5
 31
0.0
  0
LINE
  5
345
330
1F
100
AcDbEntity
  8
0
100
AcDbLine
 10
-7.0
 20
-9.5
 30
0.0
 11
-6.5
 21
-9.5
 31
0.0
  0
LINE
  5
346
330
1F
100
AcDbEntity
  8
0
100
AcDbLine
 10
6.5
 20
-9.5
 30
0.0
 11
7.0
 21
-9.5
 31
0.0
  0
LINE
  5
347
330
1F
100
AcDbEntity
  8
0
100
AcDbLine
 10
13.0
 20
-9.5
 30
0.0
 11
13.5
 21
-9.5
 31
0.0
  0
LINE
  5
348
330
1F
100
AcDbEntity
  8
0
100
AcDbLine
 10
-16.0
 20
-8.5
 30
0.0
 11
-13.0
 21
-8.5
 31
0.0
  0
LINE
  5
349
330
1F
100
AcDbEntity
  8
0
100
AcDbLine
 10
-7.0
 20
-8.5
 30
0.0
 11
-4.0
 21
-8.5
 31
0.0
  0
LINE
  5
34A
330
1F
100
AcDbEntity
  8
0
100
AcDbLine
 10
4.0
 20
-8.5
 30
0.0
 11
7.0
 21
-8.5
 31
0.0
  0
LINE
  5
34B
330
1F
100
AcDbEntity
  8
0
100
AcDbLine
 10
13.0
 20
-8.5
 30
0.0
 11
16.0
 21
-8.5
 31
0.0
  0
LINE
  5
34C
330
1F
100
AcDbEntity
  8
0
100
AcDbLine
 10
-2.5
 20
-8.5
 30
0.0
 11
2.5
 21
-8.5
 31
0.0
  0
LINE
  5
34D
330
1F
100
AcDbEntity
  8
0
100
AcDbLine
 10
-18.5
 20
-6.0
 30
0.0
 11
-17.060659
 21
-6.0
 31
0.0
  0
LINE
  5
34E
330
1F
100
AcDbEntity
  8
0
100
AcDbLine
 10
17.060659
 20
-6.0
 30
0.0
 11
18.5
 21
-6.0
 31
0.0
  0
LINE
  5
34F
330
1F
100
AcDbEntity
  8
0
100
AcDbLine
 10
-13.43934
 20
-4.5
 30
0.0
 11
-10.866025
 21
-4.5
 31
0.0
  0
LINE
  5
350
330
1F
100
AcDbEntity
  8
0
100
AcDbLine
 10
-9.133975
 20
-4.5
 30
0.0
 11
-6.560659999999999
 21
-4.5
 31
0.0
  0
LINE
  5
351
330
1F
100
AcDbEntity
  8
0
100
AcDbLine
 10
6.560659999999999
 20
-4.5
 30
0.0
 11
9.133975
 21
-4.5
 31
0.0
  0
LINE
  5
352
330
1F
100
AcDbEntity
  8
0
100
AcDbLine
 10
10.866025
 20
-4.5
 30
0.0
 11
13.43934
 21
-4.5
 31
0.0
  0
LINE
  5
353
330
1F
100
AcDbEntity
  8
0
100
AcDbLine
 10
-20.0
 20
-3.5
 30
0.0
 11
-19.5
 21
-3.5
 31
0.0
  0
LINE
  5
354
330
1F
100
AcDbEntity
  8
0
100
AcDbLine
 10
19.5
 20
-3.5
 30
0.0
 11
20.0
 21
-3.5
 31
0.0
  0
LINE
  5
355
330
1F
100
AcDbEntity
  8
0
100
AcDbLine
 10
-19.5
 20
-3.0
 30
0.0
 11
-18.5
 21
-3.0
 31
0.0
  0
LINE
  5
356
330
1F
100
AcDbEntity
  8
0
100
AcDbLine
 10
18.5
 20
-3.0
 30
0.0
 11
19.5
 21
-3.0
 31
0.0
  0
LINE
  5
357
330
1F
100
AcDbEntity
  8
0
100
AcDbLine
 10
9.930128999999999
 20
-2.749112
 30
0.0
 11
10.069871
 21
-2.749112
 31
0.0
  0
LINE
  5
358
330
1F
100
AcDbEntity
  8
0
100
AcDbLine
 10
-10.069871
 20
-2.749112
 30
0.0
 11
-9.930128999999999
 21
-2.749112
 31
0.0
  0
LINE
  5
359
330
1F
100
AcDbEntity
  8
0
100
AcDbLine
 10
9.930128999999999
 20
2.749112
 30
0.0
 11
10.069871
 21
2.749112
 31
0.0
  0
LINE
  5
35A
330
1F
100
AcDbEntity
  8
0
100
AcDbLine
 10
-10.069871
 20
2.749112
 30
0.0
 11
-9.930128999999999
 21
2.749112
 31
0.0
  0
LINE
  5
35B
330
1F
100
AcDbEntity
  8
0
100
AcDbLine
 10
-19.5
 20
3.0
 30
0.0
 11
-18.5
 21
3.0
 31
0.0
  0
LINE
  5
35C
330
1F
100
AcDbEntity
  8
0
100
AcDbLine
 10
18.5
 20
3.0
 30
0.0
 11
19.5
 21
3.0
 31
0.0
  0
LINE
  5
35D
330
1F
100
AcDbEntity
  8
0
100
AcDbLine
 10
-20.0
 20
3.5
 30
0.0
 11
-19.5
 21
3.5
 31
0.0
  0
LINE
  5
35E
330
1F
100
AcDbEntity
  8
0
100
AcDbLine
 10
19.5
 20
3.5
 30
0.0
 11
20.0
 21
3.5
 31
0.0
  0
LINE
  5
35F
330
1F
100
AcDbEntity
  8
0
100
AcDbLine
 10
6.560659999999999
 20
4.5
 30
0.0
 11
9.133975
 21
4.5
 31
0.0
  0
LINE
  5
360
330
1F
100
AcDbEntity
  8
0
100
AcDbLine
 10
-9.133975
 20
4.5
 30
0.0
 11
-6.560659999999999
 21
4.5
 31
0.0
  0
LINE
  5
361
330
1F
100
AcDbEntity
  8
0
100
AcDbLine
 10
-13.43934
 20
4.5
 30
0.0
 11
-10.866025
 21
4.5
 31
0.0
  0
LINE
  5
362
330
1F
100
AcDbEntity
  8
0
100
AcDbLine
 10
10.866025
 20
4.5
 30
0.0
 11
13.43934
 21
4.5
 31
0.0
  0
LINE
  5
363
330
1F
100
AcDbEntity
  8
0
100
AcDbLine
 10
-18.5
 20
6.0
 30
0.0
 11
-17.060659
 21
6.0
 31
0.0
  0
LINE
  5
364
330
1F
100
AcDbEntity
  8
0
100
AcDbLine
 10
17.060659
 20
6.0
 30
0.0
 11
18.5
 21
6.0
 31
0.0
  0
LINE
  5
365
330
1F
100
AcDbEntity
  8
0
100
AcDbLine
 10
4.0
 20
8.5
 30
0.0
 11
7.0
 21
8.5
 31
0.0
  0
LINE
  5
366
330
1F
100
AcDbEntity
  8
0
100
AcDbLine
 10
-7.0
 20
8.5
 30
0.0
 11
-4.0
 21
8.5
 31
0.0
  0
LINE
  5
367
330
1F
100
AcDbEntity
  8
0
100
AcDbLine
 10
-16.0
 20
8.5
 30
0.0
 11
-13.0
 21
8.5
 31
0.0
  0
LINE
  5
368
330
1F
100
AcDbEntity
  8
0
100
AcDbLine
 10
13.0
 20
8.5
 30
0.0
 11
16.0
 21
8.5
 31
0.0
  0
LINE
  5
369
330
1F
100
AcDbEntity
  8
0
100
AcDbLine
 10
-2.5
 20
8.5
 30
0.0
 11
2.5
 21
8.5
 31
0.0
  0
LINE
  5
36A
330
1F
100
AcDbEntity
  8
0
100
AcDbLine
 10
6.5
 20
9.5
 30
0.0
 11
7.0
 21
9.5
 31
0.0
  0
LINE
  5
36B
330
1F
100
AcDbEntity
  8
0
100
AcDbLine
 10
-7.0
 20
9.5
 30
0.0
 11
-6.5
 21
9.5
 31
0.0
  0
LINE
  5
36C
330
1F
100
AcDbEntity
  8
0
100
AcDbLine
 10
-13.5
 20
9.5
 30
0.0
 11
-13.0
 21
9.5
 31
0.0
  0
LINE
  5
36D
330
1F
100
AcDbEntity
  8
0
100
AcDbLine
 10
13.0
 20
9.5
 30
0.0
 11
13.5
 21
9.5
 31
0.0
  0
LINE
  5
36E
330
1F
100
AcDbEntity
  8
0
100
AcDbLine
 10
-6.5
 20
10.0
 30
0.0
 11
6.5
 21
10.0
 31
0.0
  0
LINE
  5
36F
330
1F
100
AcDbEntity
  8
0
100
AcDbLine
 10
-18.5
 20
10.0
 30
0.0
 11
-13.5
 21
10.0
 31
0.0
  0
LINE
  5
370
330
1F
100
AcDbEntity
  8
0
100
AcDbLine
 10
13.5
 20
10.0
 30
0.0
 11
18.5
 21
10.0
 31
0.0
  0
LINE
  5
371
330
1F
100
AcDbEntity
  8
0
100
AcDbLine
 10
18.5
 20
-10.0
 30
0.0
 11
18.567297
 21
-9.998489
 31
0.0
  0
LINE
  5
372
330
1F
100
AcDbEntity
  8
0
100
AcDbLine
 10
-18.567297
 20
9.998489
 30
0.0
 11
-18.5
 21
10.0
 31
0.0
  0
LINE
  5
373
330
1F
100
AcDbEntity
  8
0
100
AcDbLine
 10
10.069871
 20
-2.749112
 30
0.0
 11
10.209433
 21
-2.742013
 31
0.0
  0
LINE
  5
374
330
1F
100
AcDbEntity
  8
0
100
AcDbLine
 10
-9.930128999999999
 20
-2.749112
 30
0.0
 11
-9.790567
 21
-2.742013
 31
0.0
  0
LINE
  5
375
330
1F
100
AcDbEntity
  8
0
100
AcDbLine
 10
9.790567
 20
2.742013
 30
0.0
 11
9.930128999999999
 21
2.749112
 31
0.0
  0
LINE
  5
376
330
1F
100
AcDbEntity
  8
0
100
AcDbLine
 10
-10.209433
 20
2.742013
 30
0.0
 11
-10.069871
 21
2.749112
 31
0.0
  0
LINE
  5
377
330
1F
100
AcDbEntity
  8
0
100
AcDbLine
 10
18.567297
 20
-9.998489
 30
0.0
 11
18.634459
 21
-9.993960999999999
 31
0.0
  0
LINE
  5
378
330
1F
100
AcDbEntity
  8
0
100
AcDbLine
 10
-18.634459
 20
9.993960999999999
 30
0.0
 11
-18.567297
 21
9.998489
 31
0.0
  0
LINE
  5
379
330
1F
100
AcDbEntity
  8
0
100
AcDbLine
 10
10.209433
 20
-2.742013
 30
0.0
 11
10.348454
 21
-2.727834
 31
0.0
  0
LINE
  5
37A
330
1F
100
AcDbEntity
  8
0
100
AcDbLine
 10
-9.790567
 20
-2.742013
 30
0.0
 11
-9.651546
 21
-2.727834
 31
0.0
  0
LINE
  5
37B
330
1F
100
AcDbEntity
  8
0
100
AcDbLine
 10
9.651546
 20
2.727834
 30
0.0
 11
9.790567
 21
2.742013
 31
0.0
  0
LINE
  5
37C
330
1F
100
AcDbEntity
  8
0
100
AcDbLine
 10
-10.348454
 20
2.727834
 30
0.0
 11
-10.209433
 21
2.742013
 31
0.0
  0
LINE
  5
37D
330
1F
100
AcDbEntity
  8
0
100
AcDbLine
 10
18.634459
 20
-9.993960999999999
 30
0.0
 11
18.701349
 21
-9.986424
 31
0.0
  0
LINE
  5
37E
330
1F
100
AcDbEntity
  8
0
100
AcDbLine
 10
-18.701349
 20
9.986424
 30
0.0
 11
-18.634459
 21
9.993960999999999
 31
0.0
  0
LINE
  5
37F
330
1F
100
AcDbEntity
  8
0
100
AcDbLine
 10
10.348454
 20
-2.727834
 30
0.0
 11
10.486575
 21
-2.706611
 31
0.0
  0
LINE
  5
380
330
1F
100
AcDbEntity
  8
0
100
AcDbLine
 10
-9.651546
 20
-2.727834
 30
0.0
 11
-9.513425
 21
-2.706611
 31
0.0
  0
LINE
  5
381
330
1F
100
AcDbEntity
  8
0
100
AcDbLine
 10
9.513425
 20
2.706611
 30
0.0
 11
9.651546
 21
2.727834
 31
0.0
  0
LINE
  5
382
330
1F
100
AcDbEntity
  8
0
100
AcDbLine
 10
-10.486575
 20
2.706611
 30
0.0
 11
-10.348454
 21
2.727834
 31
0.0
  0
LINE
  5
383
330
1F
100
AcDbEntity
  8
0
100
AcDbLine
 10
18.701349
 20
-9.986424
 30
0.0
 11
18.767836
 21
-9.975894
 31
0.0
  0
LINE
  5
384
330
1F
100
AcDbEntity
  8
0
100
AcDbLine
 10
-18.767836
 20
9.975894
 30
0.0
 11
-18.701349
 21
9.986424
 31
0.0
  0
LINE
  5
385
330
1F
100
AcDbEntity
  8
0
100
AcDbLine
 10
18.767836
 20
-9.975894
 30
0.0
 11
18.833782
 21
-9.962392
 31
0.0
  0
LINE
  5
386
330
1F
100
AcDbEntity
  8
0
100
AcDbLine
 10
-18.833782
 20
9.962392
 30
0.0
 11
-18.767836
 21
9.975894
 31
0.0
  0
LINE
  5
387
330
1F
100
AcDbEntity
  8
0
100
AcDbLine
 10
10.486575
 20
-2.706611
 30
0.0
 11
10.62344
 21
-2.678399
 31
0.0
  0
LINE
  5
388
330
1F
100
AcDbEntity
  8
0
100
AcDbLine
 10
-9.513425
 20
-2.706611
 30
0.0
 11
-9.37656
 21
-2.678399
 31
0.0
  0
LINE
  5
389
330
1F
100
AcDbEntity
  8
0
100
AcDbLine
 10
9.37656
 20
2.678399
 30
0.0
 11
9.513425
 21
2.706611
 31
0.0
  0
LINE
  5
38A
330
1F
100
AcDbEntity
  8
0
100
AcDbLine
 10
-10.62344
 20
2.678399
 30
0.0
 11
-10.486575
 21
2.706611
 31
0.0
  0
LINE
  5
38B
330
1F
100
AcDbEntity
  8
0
100
AcDbLine
 10
18.833782
 20
-9.962392
 30
0.0
 11
18.899055
 21
-9.945943999999999
 31
0.0
  0
LINE
  5
38C
330
1F
100
AcDbEntity
  8
0
100
AcDbLine
 10
-18.899055
 20
9.945943999999999
 30
0.0
 11
-18.833782
 21
9.962392
 31
0.0
  0
LINE
  5
38D
330
1F
100
AcDbEntity
  8
0
100
AcDbLine
 10
10.62344
 20
-2.678399
 30
0.0
 11
10.758695
 21
-2.643271
 31
0.0
  0
LINE
  5
38E
330
1F
100
AcDbEntity
  8
0
100
AcDbLine
 10
-9.37656
 20
-2.678399
 30
0.0
 11
-9.241304999999999
 21
-2.643271
 31
0.0
  0
LINE
  5
38F
330
1F
100
AcDbEntity
  8
0
100
AcDbLine
 10
9.241304999999999
 20
2.643271
 30
0.0
 11
9.37656
 21
2.678399
 31
0.0
  0
LINE
  5
390
330
1F
100
AcDbEntity
  8
0
100
AcDbLine
 10
-10.758695
 20
2.643271
 30
0.0
 11
-10.62344
 21
2.678399
 31
0.0
  0
LINE
  5
391
330
1F
100
AcDbEntity
  8
0
100
AcDbLine
 10
18.899055
 20
-9.945943999999999
 30
0.0
 11
18.963526
 21
-9.926585
 31
0.0
  0
LINE
  5
392
330
1F
100
AcDbEntity
  8
0
100
AcDbLine
 10
-18.963526
 20
9.926585
 30
0.0
 11
-18.899055
 21
9.945943999999999
 31
0.0
  0
LINE
  5
393
330
1F
100
AcDbEntity
  8
0
100
AcDbLine
 10
10.758695
 20
-2.643271
 30
0.0
 11
10.89199
 21
-2.601318
 31
0.0
  0
LINE
  5
394
330
1F
100
AcDbEntity
  8
0
100
AcDbLine
 10
-9.241304999999999
 20
-2.643271
 30
0.0
 11
-9.10801
 21
-2.601318
 31
0.0
  0
LINE
  5
395
330
1F
100
AcDbEntity
  8
0
100
AcDbLine
 10
9.10801
 20
2.601318
 30
0.0
 11
9.241304999999999
 21
2.643271
 31
0.0
  0
LINE
  5
396
330
1F
100
AcDbEntity
  8
0
100
AcDbLine
 10
-10.89199
 20
2.601318
 30
0.0
 11
-10.758695
 21
2.643271
 31
0.0
  0
LINE
  5
397
330
1F
100
AcDbEntity
  8
0
100
AcDbLine
 10
18.963526
 20
-9.926585
 30
0.0
 11
19.027061
 21
-9.904352
 31
0.0
  0
LINE
  5
398
330
1F
100
AcDbEntity
  8
0
100
AcDbLine
 10
-19.027061
 20
9.904352
 30
0.0
 11
-18.963526
 21
9.926585
 31
0.0
  0
LINE
  5
399
330
1F
100
AcDbEntity
  8
0
100
AcDbLine
 10
10.89199
 20
-2.601318
 30
0.0
 11
11.022983
 21
-2.552647
 31
0.0
  0
LINE
  5
39A
330
1F
100
AcDbEntity
  8
0
100
AcDbLine
 10
-9.10801
 20
-2.601318
 30
0.0
 11
-8.977017
 21
-2.552647
 31
0.0
  0
LINE
  5
39B
330
1F
100
AcDbEntity
  8
0
100
AcDbLine
 10
8.977017
 20
2.552647
 30
0.0
 11
9.10801
 21
2.601318
 31
0.0
  0
LINE
  5
39C
330
1F
100
AcDbEntity
  8
0
100
AcDbLine
 10
-11.022983
 20
2.552647
 30
0.0
 11
-10.89199
 21
2.601318
 31
0.0
  0
LINE
  5
39D
330
1F
100
AcDbEntity
  8
0
100
AcDbLine
 10
19.027061
 20
-9.904352
 30
0.0
 11
19.089537
 21
-9.879292
 31
0.0
  0
LINE
  5
39E
330
1F
100
AcDbEntity
  8
0
100
AcDbLine
 10
-19.089537
 20
9.879292
 30
0.0
 11
-19.027061
 21
9.904352
 31
0.0
  0
LINE
  5
39F
330
1F
100
AcDbEntity
  8
0
100
AcDbLine
 10
11.022983
 20
-2.552647
 30
0.0
 11
11.151334
 21
-2.497385
 31
0.0
  0
LINE
  5
3A0
330
1F
100
AcDbEntity
  8
0
100
AcDbLine
 10
-8.977017
 20
-2.552647
 30
0.0
 11
-8.848666
 21
-2.497385
 31
0.0
  0
LINE
  5
3A1
330
1F
100
AcDbEntity
  8
0
100
AcDbLine
 10
8.848666
 20
2.497385
 30
0.0
 11
8.977017
 21
2.552647
 31
0.0
  0
LINE
  5
3A2
330
1F
100
AcDbEntity
  8
0
100
AcDbLine
 10
-11.151334
 20
2.497385
 30
0.0
 11
-11.022983
 21
2.552647
 31
0.0
  0
LINE
  5
3A3
330
1F
100
AcDbEntity
  8
0
100
AcDbLine
 10
19.089537
 20
-9.879292
 30
0.0
 11
19.150826
 21
-9.851453
 31
0.0
  0
LINE
  5
3A4
330
1F
100
AcDbEntity
  8
0
100
AcDbLine
 10
-19.150826
 20
9.851453
 30
0.0
 11
-19.089537
 21
9.879292
 31
0.0
  0
LINE
  5
3A5
330
1F
100
AcDbEntity
  8
0
100
AcDbLine
 10
11.151334
 20
-2.497385
 30
0.0
 11
11.276711
 21
-2.435674
 31
0.0
  0
LINE
  5
3A6
330
1F
100
AcDbEntity
  8
0
100
AcDbLine
 10
-8.848666
 20
-2.497385
 30
0.0
 11
-8.723289
 21
-2.435674
 31
0.0
  0
LINE
  5
3A7
330
1F
100
AcDbEntity
  8
0
100
AcDbLine
 10
8.723289
 20
2.435674
 30
0.0
 11
8.848666
 21
2.497385
 31
0.0
  0
LINE
  5
3A8
330
1F
100
AcDbEntity
  8
0
100
AcDbLine
 10
-11.276711
 20
2.435674
 30
0.0
 11
-11.151334
 21
2.497385
 31
0.0
  0
LINE
  5
3A9
330
1F
100
AcDbEntity
  8
0
100
AcDbLine
 10
19.150826
 20
-9.851453
 30
0.0
 11
19.210802
 21
-9.820893
 31
0.0
  0
LINE
  5
3AA
330
1F
100
AcDbEntity
  8
0
100
AcDbLine
 10
-19.210802
 20
9.820893
 30
0.0
 11
-19.150826
 21
9.851453
 31
0.0
  0
LINE
  5
3AB
330
1F
100
AcDbEntity
  8
0
100
AcDbLine
 10
19.210802
 20
-9.820893
 30
0.0
 11
19.269348
 21
-9.787673
 31
0.0
  0
LINE
  5
3AC
330
1F
100
AcDbEntity
  8
0
100
AcDbLine
 10
-19.269348
 20
9.787673
 30
0.0
 11
-19.210802
 21
9.820893
 31
0.0
  0
LINE
  5
3AD
330
1F
100
AcDbEntity
  8
0
100
AcDbLine
 10
-10.866025
 20
-4.5
 30
0.0
 11
-10.0
 21
-4.0
 31
0.0
  0
LINE
  5
3AE
330
1F
100
AcDbEntity
  8
0
100
AcDbLine
 10
9.133975
 20
-4.5
 30
0.0
 11
10.0
 21
-4.0
 31
0.0
  0
LINE
  5
3AF
330
1F
100
AcDbEntity
  8
0
100
AcDbLine
 10
-10.0
 20
4.0
 30
0.0
 11
-9.133975
 21
4.5
 31
0.0
  0
LINE
  5
3B0
330
1F
100
AcDbEntity
  8
0
100
AcDbLine
 10
10.0
 20
4.0
 30
0.0
 11
10.866025
 21
4.5
 31
0.0
  0
LINE
  5
3B1
330
1F
100
AcDbEntity
  8
0
100
AcDbLine
 10
19.269348
 20
-9.787673
 30
0.0
 11
19.326345
 21
-9.751859999999999
 31
0.0
  0
LINE
  5
3B2
330
1F
100
AcDbEntity
  8
0
100
AcDbLine
 10
-19.326345
 20
9.751859999999999
 30
0.0
 11
-19.269348
 21
9.787673
 31
0.0
  0
LINE
  5
3B3
330
1F
100
AcDbEntity
  8
0
100
AcDbLine
 10
-8.113011
 20
-2.947757
 30
0.0
 11
-7.998749999999999
 21
-2.871411
 31
0.0
  0
LINE
  5
3B4
330
1F
100
AcDbEntity
  8
0
100
AcDbLine
 10
7.998749999999999
 20
2.871411
 30
0.0
 11
8.113011
 21
2.947757
 31
0.0
  0
LINE
  5
3B5
330
1F
100
AcDbEntity
  8
0
100
AcDbLine
 10
11.886989
 20
-2.947757
 30
0.0
 11
12.001249
 21
-2.871411
 31
0.0
  0
LINE
  5
3B6
330
1F
100
AcDbEntity
  8
0
100
AcDbLine
 10
-12.001249
 20
2.871411
 30
0.0
 11
-11.886989
 21
2.947757
 31
0.0
  0
LINE
  5
3B7
330
1F
100
AcDbEntity
  8
0
100
AcDbLine
 10
19.326345
 20
-9.751859999999999
 30
0.0
 11
19.381678
 21
-9.713526
 31
0.0
  0
LINE
  5
3B8
330
1F
100
AcDbEntity
  8
0
100
AcDbLine
 10
-19.381678
 20
9.713526
 30
0.0
 11
-19.326345
 21
9.751859999999999
 31
0.0
  0
LINE
  5
3B9
330
1F
100
AcDbEntity
  8
0
100
AcDbLine
 10
12.001249
 20
-2.871411
 30
0.0
 11
12.112426
 21
-2.790637
 31
0.0
  0
LINE
  5
3BA
330
1F
100
AcDbEntity
  8
0
100
AcDbLine
 10
-12.112426
 20
2.790637
 30
0.0
 11
-12.001249
 21
2.871411
 31
0.0
  0
LINE
  5
3BB
330
1F
100
AcDbEntity
  8
0
100
AcDbLine
 10
-7.998749999999999
 20
-2.871411
 30
0.0
 11
-7.887574
 21
-2.790637
 31
0.0
  0
LINE
  5
3BC
330
1F
100
AcDbEntity
  8
0
100
AcDbLine
 10
7.887574
 20
2.790637
 30
0.0
 11
7.998749999999999
 21
2.871411
 31
0.0
  0
LINE
  5
3BD
330
1F
100
AcDbEntity
  8
0
100
AcDbLine
 10
19.381678
 20
-9.713526
 30
0.0
 11
19.435234
 21
-9.672748
 31
0.0
  0
LINE
  5
3BE
330
1F
100
AcDbEntity
  8
0
100
AcDbLine
 10
-19.435234
 20
9.672748
 30
0.0
 11
-19.381678
 21
9.713526
 31
0.0
  0
LINE
  5
3BF
330
1F
100
AcDbEntity
  8
0
100
AcDbLine
 10
12.112426
 20
-2.790637
 30
0.0
 11
12.220345
 21
-2.705562
 31
0.0
  0
LINE
  5
3C0
330
1F
100
AcDbEntity
  8
0
100
AcDbLine
 10
-7.887574
 20
-2.790637
 30
0.0
 11
-7.779655
 21
-2.705562
 31
0.0
  0
LINE
  5
3C1
330
1F
100
AcDbEntity
  8
0
100
AcDbLine
 10
7.779655
 20
2.705562
 30
0.0
 11
7.887574
 21
2.790637
 31
0.0
  0
LINE
  5
3C2
330
1F
100
AcDbEntity
  8
0
100
AcDbLine
 10
-12.220345
 20
2.705562
 30
0.0
 11
-12.112426
 21
2.790637
 31
0.0
  0
LINE
  5
3C3
330
1F
100
AcDbEntity
  8
0
100
AcDbLine
 10
19.435234
 20
-9.672748
 30
0.0
 11
19.486908
 21
-9.629607
 31
0.0
  0
LINE
  5
3C4
330
1F
100
AcDbEntity
  8
0
100
AcDbLine
 10
-19.486908
 20
9.629607
 30
0.0
 11
-19.435234
 21
9.672748
 31
0.0
  0
LINE
  5
3C5
330
1F
100
AcDbEntity
  8
0
100
AcDbLine
 10
8.113011
 20
-2.947757
 30
0.0
 11
8.723289
 21
-2.435674
 31
0.0
  0
LINE
  5
3C6
330
1F
100
AcDbEntity
  8
0
100
AcDbLine
 10
-11.886989
 20
-2.947757
 30
0.0
 11
-11.276711
 21
-2.435674
 31
0.0
  0
LINE
  5
3C7
330
1F
100
AcDbEntity
  8
0
100
AcDbLine
 10
11.276711
 20
2.435674
 30
0.0
 11
11.886989
 21
2.947757
 31
0.0
  0
LINE
  5
3C8
330
1F
100
AcDbEntity
  8
0
100
AcDbLine
 10
-8.723289
 20
2.435674
 30
0.0
 11
-8.113011
 21
2.947757
 31
0.0
  0
LINE
  5
3C9
330
1F
100
AcDbEntity
  8
0
100
AcDbLine
 10
-7.779655
 20
-2.705562
 30
0.0
 11
-7.675158
 21
-2.616316
 31
0.0
  0
LINE
  5
3CA
330
1F
100
AcDbEntity
  8
0
100
AcDbLine
 10
7.675158
 20
2.616316
 30
0.0
 11
7.779655
 21
2.705562
 31
0.0
  0
LINE
  5
3CB
330
1F
100
AcDbEntity
  8
0
100
AcDbLine
 10
12.220345
 20
-2.705562
 30
0.0
 11
12.324841
 21
-2.616316
 31
0.0
  0
LINE
  5
3CC
330
1F
100
AcDbEntity
  8
0
100
AcDbLine
 10
-12.324841
 20
2.616316
 30
0.0
 11
-12.220345
 21
2.705562
 31
0.0
  0
LINE
  5
3CD
330
1F
100
AcDbEntity
  8
0
100
AcDbLine
 10
19.486908
 20
-9.629607
 30
0.0
 11
19.536594
 21
-9.584192
 31
0.0
  0
LINE
  5
3CE
330
1F
100
AcDbEntity
  8
0
100
AcDbLine
 10
-19.536594
 20
9.584192
 30
0.0
 11
-19.486908
 21
9.629607
 31
0.0
  0
LINE
  5
3CF
330
1F
100
AcDbEntity
  8
0
100
AcDbLine
 10
12.324841
 20
-2.616316
 30
0.0
 11
12.425755
 21
-2.523037
 31
0.0
  0
LINE
  5
3D0
330
1F
100
AcDbEntity
  8
0
100
AcDbLine
 10
-12.425755
 20
2.523037
 30
0.0
 11
-12.324841
 21
2.616316
 31
0.0
  0
LINE
  5
3D1
330
1F
100
AcDbEntity
  8
0
100
AcDbLine
 10
-7.675158
 20
-2.616316
 30
0.0
 11
-7.574244999999999
 21
-2.523037
 31
0.0
  0
LINE
  5
3D2
330
1F
100
AcDbEntity
  8
0
100
AcDbLine
 10
7.574244999999999
 20
2.523037
 30
0.0
 11
7.675158
 21
2.616316
 31
0.0
  0
LINE
  5
3D3
330
1F
100
AcDbEntity
  8
0
100
AcDbLine
 10
-7.574244999999999
 20
-2.523037
 30
0.0
 11
-7.477072
 21
-2.425868
 31
0.0
  0
LINE
  5
3D4
330
1F
100
AcDbEntity
  8
0
100
AcDbLine
 10
7.477072
 20
2.425868
 30
0.0
 11
7.574244999999999
 21
2.523037
 31
0.0
  0
LINE
  5
3D5
330
1F
100
AcDbEntity
  8
0
100
AcDbLine
 10
12.425755
 20
-2.523037
 30
0.0
 11
12.522927
 21
-2.425868
 31
0.0
  0
LINE
  5
3D6
330
1F
100
AcDbEntity
  8
0
100
AcDbLine
 10
-12.522927
 20
2.425868
 30
0.0
 11
-12.425755
 21
2.523037
 31
0.0
  0
LINE
  5
3D7
330
1F
100
AcDbEntity
  8
0
100
AcDbLine
 10
19.536594
 20
-9.584192
 30
0.0
 11
19.584192
 21
-9.536594
 31
0.0
  0
LINE
  5
3D8
330
1F
100
AcDbEntity
  8
0
100
AcDbLine
 10
-16.0
 20
-7.060659999999999
 30
0.0
 11
-13.43934
 21
-4.5
 31
0.0
  0
LINE
  5
3D9
330
1F
100
AcDbEntity
  8
0
100
AcDbLine
 10
4.0
 20
-7.060659999999999
 30
0.0
 11
6.560659999999999
 21
-4.5
 31
0.0
  0
LINE
  5
3DA
330
1F
100
AcDbEntity
  8
0
100
AcDbLine
 10
2.5
 20
-6.43934
 30
0.0
 11
5.5
 21
-3.43934
 31
0.0
  0
LINE
  5
3DB
330
1F
100
AcDbEntity
  8
0
100
AcDbLine
 10
14.5
 20
3.43934
 30
0.0
 11
17.060659
 21
6.0
 31
0.0
  0
LINE
  5
3DC
330
1F
100
AcDbEntity
  8
0
100
AcDbLine
 10
-5.5
 20
3.43934
 30
0.0
 11
-2.5
 21
6.43934
 31
0.0
  0
LINE
  5
3DD
330
1F
100
AcDbEntity
  8
0
100
AcDbLine
 10
-6.560659999999999
 20
4.5
 30
0.0
 11
-4.0
 21
7.060659999999999
 31
0.0
  0
LINE
  5
3DE
330
1F
100
AcDbEntity
  8
0
100
AcDbLine
 10
-17.060659
 20
-6.0
 30
0.0
 11
-14.5
 21
-3.43934
 31
0.0
  0
LINE
  5
3DF
330
1F
100
AcDbEntity
  8
0
100
AcDbLine
 10
13.43934
 20
4.5
 30
0.0
 11
16.0
 21
7.060659999999999
 31
0.0
  0
LINE
  5
3E0
330
1F
100
AcDbEntity
  8
0
100
AcDbLine
 10
-19.584192
 20
9.536594
 30
0.0
 11
-19.536594
 21
9.584192
 31
0.0
  0
LINE
  5
3E1
330
1F
100
AcDbEntity
  8
0
100
AcDbLine
 10
12.522927
 20
-2.425868
 30
0.0
 11
12.616212
 21
-2.32496
 31
0.0
  0
LINE
  5
3E2
330
1F
100
AcDbEntity
  8
0
100
AcDbLine
 10
-12.616212
 20
2.32496
 30
0.0
 11
-12.522927
 21
2.425868
 31
0.0
  0
LINE
  5
3E3
330
1F
100
AcDbEntity
  8
0
100
AcDbLine
 10
-7.477072
 20
-2.425868
 30
0.0
 11
-7.383788
 21
-2.32496
 31
0.0
  0
LINE
  5
3E4
330
1F
100
AcDbEntity
  8
0
100
AcDbLine
 10
7.383788
 20
2.32496
 30
0.0
 11
7.477072
 21
2.425868
 31
0.0
  0
LINE
  5
3E5
330
1F
100
AcDbEntity
  8
0
100
AcDbLine
 10
19.584192
 20
-9.536594
 30
0.0
 11
19.629606
 21
-9.486908
 31
0.0
  0
LINE
  5
3E6
330
1F
100
AcDbEntity
  8
0
100
AcDbLine
 10
-19.629606
 20
9.486908
 30
0.0
 11
-19.584192
 21
9.536594
 31
0.0
  0
LINE
  5
3E7
330
1F
100
AcDbEntity
  8
0
100
AcDbLine
 10
12.616212
 20
-2.32496
 30
0.0
 11
12.705462
 21
-2.220467
 31
0.0
  0
LINE
  5
3E8
330
1F
100
AcDbEntity
  8
0
100
AcDbLine
 10
-7.383788
 20
-2.32496
 30
0.0
 11
-7.294537999999999
 21
-2.220467
 31
0.0
  0
LINE
  5
3E9
330
1F
100
AcDbEntity
  8
0
100
AcDbLine
 10
7.294537999999999
 20
2.220467
 30
0.0
 11
7.383788
 21
2.32496
 31
0.0
  0
LINE
  5
3EA
330
1F
100
AcDbEntity
  8
0
100
AcDbLine
 10
-12.705462
 20
2.220467
 30
0.0
 11
-12.616212
 21
2.32496
 31
0.0
  0
LINE
  5
3EB
330
1F
100
AcDbEntity
  8
0
100
AcDbLine
 10
-12.947673
 20
-1.887121
 30
0.0
 11
-12.435598
 21
-1.276855
 31
0.0
  0
LINE
  5
3EC
330
1F
100
AcDbEntity
  8
0
100
AcDbLine
 10
12.435598
 20
1.276855
 30
0.0
 11
12.947673
 21
1.887121
 31
0.0
  0
LINE
  5
3ED
330
1F
100
AcDbEntity
  8
0
100
AcDbLine
 10
7.052327
 20
-1.887121
 30
0.0
 11
7.564400999999999
 21
-1.276855
 31
0.0
  0
LINE
  5
3EE
330
1F
100
AcDbEntity
  8
0
100
AcDbLine
 10
-7.564400999999999
 20
1.276855
 30
0.0
 11
-7.052327
 21
1.887121
 31
0.0
  0
LINE
  5
3EF
330
1F
100
AcDbEntity
  8
0
100
AcDbLine
 10
19.629606
 20
-9.486908
 30
0.0
 11
19.672747
 21
-9.435234999999999
 31
0.0
  0
LINE
  5
3F0
330
1F
100
AcDbEntity
  8
0
100
AcDbLine
 10
-19.672747
 20
9.435234999999999
 30
0.0
 11
-19.629606
 21
9.486908
 31
0.0
  0
LINE
  5
3F1
330
1F
100
AcDbEntity
  8
0
100
AcDbLine
 10
12.705462
 20
-2.220467
 30
0.0
 11
12.790543
 21
-2.112551
 31
0.0
  0
LINE
  5
3F2
330
1F
100
AcDbEntity
  8
0
100
AcDbLine
 10
-7.294537999999999
 20
-2.220467
 30
0.0
 11
-7.209457
 21
-2.112551
 31
0.0
  0
LINE
  5
3F3
330
1F
100
AcDbEntity
  8
0
100
AcDbLine
 10
7.209457
 20
2.112551
 30
0.0
 11
7.294537999999999
 21
2.220467
 31
0.0
  0
LINE
  5
3F4
330
1F
100
AcDbEntity
  8
0
100
AcDbLine
 10
-12.790543
 20
2.112551
 30
0.0
 11
-12.705462
 21
2.220467
 31
0.0
  0
LINE
  5
3F5
330
1F
100
AcDbEntity
  8
0
100
AcDbLine
 10
19.672747
 20
-9.435234999999999
 30
0.0
 11
19.713526
 21
-9.381677999999999
 31
0.0
  0
LINE
  5
3F6
330
1F
100
AcDbEntity
  8
0
100
AcDbLine
 10
-19.713526
 20
9.381677999999999
 30
0.0
 11
-19.672747
 21
9.435234999999999
 31
0.0
  0
LINE
  5
3F7
330
1F
100
AcDbEntity
  8
0
100
AcDbLine
 10
12.790543
 20
-2.112551
 30
0.0
 11
12.871321
 21
-2.001379
 31
0.0
  0
LINE
  5
3F8
330
1F
100
AcDbEntity
  8
0
100
AcDbLine
 10
-7.209457
 20
-2.112551
 30
0.0
 11
-7.128679
 21
-2.001379
 31
0.0
  0
LINE
  5
3F9
330
1F
100
AcDbEntity
  8
0
100
AcDbLine
 10
7.128679
 20
2.001379
 30
0.0
 11
7.209457
 21
2.112551
 31
0.0
  0
LINE
  5
3FA
330
1F
100
AcDbEntity
  8
0
100
AcDbLine
 10
-12.871321
 20
2.001379
 30
0.0
 11
-12.790543
 21
2.112551
 31
0.0
  0
LINE
  5
3FB
330
1F
100
AcDbEntity
  8
0
100
AcDbLine
 10
19.713526
 20
-9.381677999999999
 30
0.0
 11
19.75186
 21
-9.326345
 31
0.0
  0
LINE
  5
3FC
330
1F
100
AcDbEntity
  8
0
100
AcDbLine
 10
-19.75186
 20
9.326345
 30
0.0
 11
-19.713526
 21
9.381677999999999
 31
0.0
  0
LINE
  5
3FD
330
1F
100
AcDbEntity
  8
0
100
AcDbLine
 10
12.871321
 20
-2.001379
 30
0.0
 11
12.947673
 21
-1.887121
 31
0.0
  0
LINE
  5
3FE
330
1F
100
AcDbEntity
  8
0
100
AcDbLine
 10
-7.128679
 20
-2.001379
 30
0.0
 11
-7.052327
 21
-1.887121
 31
0.0
  0
LINE
  5
3FF
330
1F
100
AcDbEntity
  8
0
100
AcDbLine
 10
7.052327
 20
1.887121
 30
0.0
 11
7.128679
 21
2.001379
 31
0.0
  0
LINE
  5
400
330
1F
100
AcDbEntity
  8
0
100
AcDbLine
 10
-12.947673
 20
1.887121
 30
0.0
 11
-12.871321
 21
2.001379
 31
0.0
  0
LINE
  5
401
330
1F
100
AcDbEntity
  8
0
100
AcDbLine
 10
19.75186
 20
-9.326345
 30
0.0
 11
19.787674
 21
-9.269349
 31
0.0
  0
LINE
  5
402
330
1F
100
AcDbEntity
  8
0
100
AcDbLine
 10
-19.787674
 20
9.269349
 30
0.0
 11
-19.75186
 21
9.326345
 31
0.0
  0
LINE
  5
403
330
1F
100
AcDbEntity
  8
0
100
AcDbLine
 10
-14.5
 20
-0.8660249999999999
 30
0.0
 11
-14.0
 21
0.0
 31
0.0
  0
LINE
  5
404
330
1F
100
AcDbEntity
  8
0
100
AcDbLine
 10
5.5
 20
-0.8660249999999999
 30
0.0
 11
6.0
 21
0.0
 31
0.0
  0
LINE
  5
405
330
1F
100
AcDbEntity
  8
0
100
AcDbLine
 10
14.0
 20
0.0
 30
0.0
 11
14.5
 21
0.8660249999999999
 31
0.0
  0
LINE
  5
406
330
1F
100
AcDbEntity
  8
0
100
AcDbLine
 10
-6.0
 20
0.0
 30
0.0
 11
-5.5
 21
0.8660249999999999
 31
0.0
  0
LINE
  5
407
330
1F
100
AcDbEntity
  8
0
100
AcDbLine
 10
19.787674
 20
-9.269349
 30
0.0
 11
19.820892
 21
-9.210803
 31
0.0
  0
LINE
  5
408
330
1F
100
AcDbEntity
  8
0
100
AcDbLine
 10
-19.820892
 20
9.210803
 30
0.0
 11
-19.787674
 21
9.269349
 31
0.0
  0
LINE
  5
409
330
1F
100
AcDbEntity
  8
0
100
AcDbLine
 10
19.820892
 20
-9.210803
 30
0.0
 11
19.851454
 21
-9.150826
 31
0.0
  0
LINE
  5
40A
330
1F
100
AcDbEntity
  8
0
100
AcDbLine
 10
-19.851454
 20
9.150826
 30
0.0
 11
-19.820892
 21
9.210803
 31
0.0
  0
LINE
  5
40B
330
1F
100
AcDbEntity
  8
0
100
AcDbLine
 10
12.435598
 20
-1.276855
 30
0.0
 11
12.497324
 21
-1.151465
 31
0.0
  0
LINE
  5
40C
330
1F
100
AcDbEntity
  8
0
100
AcDbLine
 10
-12.497324
 20
1.151465
 30
0.0
 11
-12.435598
 21
1.276855
 31
0.0
  0
LINE
  5
40D
330
1F
100
AcDbEntity
  8
0
100
AcDbLine
 10
-7.564400999999999
 20
-1.276855
 30
0.0
 11
-7.502675999999999
 21
-1.151465
 31
0.0
  0
LINE
  5
40E
330
1F
100
AcDbEntity
  8
0
100
AcDbLine
 10
7.487298999999999
 20
1.117512
 30
0.0
 11
7.564400999999999
 21
1.276855
 31
0.0
  0
LINE
  5
40F
330
1F
100
AcDbEntity
  8
0
100
AcDbLine
 10
19.851454
 20
-9.150826
 30
0.0
 11
19.879292
 21
-9.089538
 31
0.0
  0
LINE
  5
410
330
1F
100
AcDbEntity
  8
0
100
AcDbLine
 10
-19.879292
 20
9.089538
 30
0.0
 11
-19.851454
 21
9.150826
 31
0.0
  0
LINE
  5
411
330
1F
100
AcDbEntity
  8
0
100
AcDbLine
 10
12.497324
 20
-1.151465
 30
0.0
 11
12.552599
 21
-1.023101
 31
0.0
  0
LINE
  5
412
330
1F
100
AcDbEntity
  8
0
100
AcDbLine
 10
-7.502675999999999
 20
-1.151465
 30
0.0
 11
-7.447400999999999
 21
-1.023101
 31
0.0
  0
LINE
  5
413
330
1F
100
AcDbEntity
  8
0
100
AcDbLine
 10
-12.552599
 20
1.023101
 30
0.0
 11
-12.497324
 21
1.151465
 31
0.0
  0
LINE
  5
414
330
1F
100
AcDbEntity
  8
0
100
AcDbLine
 10
7.420608
 20
0.9535389999999999
 30
0.0
 11
7.487298999999999
 21
1.117512
 31
0.0
  0
LINE
  5
415
330
1F
100
AcDbEntity
  8
0
100
AcDbLine
 10
19.879292
 20
-9.089538
 30
0.0
 11
19.904352
 21
-9.027061999999999
 31
0.0
  0
LINE
  5
416
330
1F
100
AcDbEntity
  8
0
100
AcDbLine
 10
-19.904352
 20
9.027061999999999
 30
0.0
 11
-19.879292
 21
9.089538
 31
0.0
  0
LINE
  5
417
330
1F
100
AcDbEntity
  8
0
100
AcDbLine
 10
12.552599
 20
-1.023101
 30
0.0
 11
12.601282
 21
-0.892095
 31
0.0
  0
LINE
  5
418
330
1F
100
AcDbEntity
  8
0
100
AcDbLine
 10
-7.447400999999999
 20
-1.023101
 30
0.0
 11
-7.398718
 21
-0.892095
 31
0.0
  0
LINE
  5
419
330
1F
100
AcDbEntity
  8
0
100
AcDbLine
 10
-12.601282
 20
0.892095
 30
0.0
 11
-12.552599
 21
1.023101
 31
0.0
  0
LINE
  5
41A
330
1F
100
AcDbEntity
  8
0
100
AcDbLine
 10
19.904352
 20
-9.027061999999999
 30
0.0
 11
19.926584
 21
-8.963526
 31
0.0
  0
LINE
  5
41B
330
1F
100
AcDbEntity
  8
0
100
AcDbLine
 10
-19.926584
 20
8.963526
 30
0.0
 11
-19.904352
 21
9.027061999999999
 31
0.0
  0
LINE
  5
41C
330
1F
100
AcDbEntity
  8
0
100
AcDbLine
 10
7.364604
 20
0.785615
 30
0.0
 11
7.420608
 21
0.9535389999999999
 31
0.0
  0
LINE
  5
41D
330
1F
100
AcDbEntity
  8
0
100
AcDbLine
 10
12.601282
 20
-0.892095
 30
0.0
 11
12.643246
 21
-0.7587849999999999
 31
0.0
  0
LINE
  5
41E
330
1F
100
AcDbEntity
  8
0
100
AcDbLine
 10
-12.643246
 20
0.7587849999999999
 30
0.0
 11
-12.601282
 21
0.892095
 31
0.0
  0
LINE
  5
41F
330
1F
100
AcDbEntity
  8
0
100
AcDbLine
 10
-7.398718
 20
-0.892095
 30
0.0
 11
-7.356755
 21
-0.7587849999999999
 31
0.0
  0
LINE
  5
420
330
1F
100
AcDbEntity
  8
0
100
AcDbLine
 10
19.926584
 20
-8.963526
 30
0.0
 11
19.945944
 21
-8.899054999999999
 31
0.0
  0
LINE
  5
421
330
1F
100
AcDbEntity
  8
0
100
AcDbLine
 10
-19.945944
 20
8.899054999999999
 30
0.0
 11
-19.926584
 21
8.963526
 31
0.0
  0
LINE
  5
422
330
1F
100
AcDbEntity
  8
0
100
AcDbLine
 10
7.31952
 20
0.614435
 30
0.0
 11
7.364604
 21
0.785615
 31
0.0
  0
LINE
  5
423
330
1F
100
AcDbEntity
  8
0
100
AcDbLine
 10
-7.356755
 20
-0.7587849999999999
 30
0.0
 11
-7.321618
 21
-0.623514
 31
0.0
  0
LINE
  5
424
330
1F
100
AcDbEntity
  8
0
100
AcDbLine
 10
12.643246
 20
-0.7587849999999999
 30
0.0
 11
12.678382
 21
-0.623514
 31
0.0
  0
LINE
  5
425
330
1F
100
AcDbEntity
  8
0
100
AcDbLine
 10
-12.678382
 20
0.623514
 30
0.0
 11
-12.643246
 21
0.7587849999999999
 31
0.0
  0
LINE
  5
426
330
1F
100
AcDbEntity
  8
0
100
AcDbLine
 10
19.945944
 20
-8.899054999999999
 30
0.0
 11
19.962391
 21
-8.833781
 31
0.0
  0
LINE
  5
427
330
1F
100
AcDbEntity
  8
0
100
AcDbLine
 10
-19.962391
 20
8.833781
 30
0.0
 11
-19.945944
 21
8.899054999999999
 31
0.0
  0
LINE
  5
428
330
1F
100
AcDbEntity
  8
0
100
AcDbLine
 10
12.678382
 20
-0.623514
 30
0.0
 11
12.706601
 21
-0.486634
 31
0.0
  0
LINE
  5
429
330
1F
100
AcDbEntity
  8
0
100
AcDbLine
 10
-7.321618
 20
-0.623514
 30
0.0
 11
-7.293399
 21
-0.486634
 31
0.0
  0
LINE
  5
42A
330
1F
100
AcDbEntity
  8
0
100
AcDbLine
 10
-12.706601
 20
0.486634
 30
0.0
 11
-12.678382
 21
0.623514
 31
0.0
  0
LINE
  5
42B
330
1F
100
AcDbEntity
  8
0
100
AcDbLine
 10
19.962391
 20
-8.833781
 30
0.0
 11
19.975895
 21
-8.767835999999999
 31
0.0
  0
LINE
  5
42C
330
1F
100
AcDbEntity
  8
0
100
AcDbLine
 10
-19.975895
 20
8.767835999999999
 30
0.0
 11
-19.962391
 21
8.833781
 31
0.0
  0
LINE
  5
42D
330
1F
100
AcDbEntity
  8
0
100
AcDbLine
 10
7.285543
 20
0.44071
 30
0.0
 11
7.31952
 21
0.614435
 31
0.0
  0
LINE
  5
42E
330
1F
100
AcDbEntity
  8
0
100
AcDbLine
 10
19.975895
 20
-8.767835999999999
 30
0.0
 11
19.986425
 21
-8.70135
 31
0.0
  0
LINE
  5
42F
330
1F
100
AcDbEntity
  8
0
100
AcDbLine
 10
-19.986425
 20
8.70135
 30
0.0
 11
-19.975895
 21
8.767835999999999
 31
0.0
  0
LINE
  5
430
330
1F
100
AcDbEntity
  8
0
100
AcDbLine
 10
12.706601
 20
-0.486634
 30
0.0
 11
12.727829
 21
-0.348496
 31
0.0
  0
LINE
  5
431
330
1F
100
AcDbEntity
  8
0
100
AcDbLine
 10
-7.293399
 20
-0.486634
 30
0.0
 11
-7.272170999999999
 21
-0.348496
 31
0.0
  0
LINE
  5
432
330
1F
100
AcDbEntity
  8
0
100
AcDbLine
 10
-12.727829
 20
0.348496
 30
0.0
 11
-12.706601
 21
0.486634
 31
0.0
  0
LINE
  5
433
330
1F
100
AcDbEntity
  8
0
100
AcDbLine
 10
7.262813
 20
0.265158
 30
0.0
 11
7.285543
 21
0.44071
 31
0.0
  0
LINE
  5
434
330
1F
100
AcDbEntity
  8
0
100
AcDbLine
 10
19.986425
 20
-8.70135
 30
0.0
 11
19.993961
 21
-8.634459
 31
0.0
  0
LINE
  5
435
330
1F
100
AcDbEntity
  8
0
100
AcDbLine
 10
-19.993961
 20
8.634459
 30
0.0
 11
-19.986425
 21
8.70135
 31
0.0
  0
LINE
  5
436
330
1F
100
AcDbEntity
  8
0
100
AcDbLine
 10
-7.272170999999999
 20
-0.348496
 30
0.0
 11
-7.257988
 21
-0.209458
 31
0.0
  0
LINE
  5
437
330
1F
100
AcDbEntity
  8
0
100
AcDbLine
 10
12.727829
 20
-0.348496
 30
0.0
 11
12.742011
 21
-0.209458
 31
0.0
  0
LINE
  5
438
330
1F
100
AcDbEntity
  8
0
100
AcDbLine
 10
-12.742011
 20
0.209458
 30
0.0
 11
-12.727829
 21
0.348496
 31
0.0
  0
LINE
  5
439
330
1F
100
AcDbEntity
  8
0
100
AcDbLine
 10
19.993961
 20
-8.634459
 30
0.0
 11
19.998489
 21
-8.567297
 31
0.0
  0
LINE
  5
43A
330
1F
100
AcDbEntity
  8
0
100
AcDbLine
 10
-19.998489
 20
8.567297
 30
0.0
 11
-19.993961
 21
8.634459
 31
0.0
  0
LINE
  5
43B
330
1F
100
AcDbEntity
  8
0
100
AcDbLine
 10
7.251424999999999
 20
0.088508
 30
0.0
 11
7.262813
 21
0.265158
 31
0.0
  0
LINE
  5
43C
330
1F
100
AcDbEntity
  8
0
100
AcDbLine
 10
12.742011
 20
-0.209458
 30
0.0
 11
12.749112
 21
-0.06988
 31
0.0
  0
LINE
  5
43D
330
1F
100
AcDbEntity
  8
0
100
AcDbLine
 10
-12.749112
 20
0.06988
 30
0.0
 11
-12.742011
 21
0.209458
 31
0.0
  0
LINE
  5
43E
330
1F
100
AcDbEntity
  8
0
100
AcDbLine
 10
-7.257988
 20
-0.209458
 30
0.0
 11
-7.250888
 21
-0.06988
 31
0.0
  0
LINE
  5
43F
330
1F
100
AcDbEntity
  8
0
100
AcDbLine
 10
19.998489
 20
-8.567297
 30
0.0
 11
20.0
 21
-8.5
 31
0.0
  0
LINE
  5
440
330
1F
100
AcDbEntity
  8
0
100
AcDbLine
 10
-20.0
 20
8.5
 30
0.0
 11
-19.998489
 21
8.567297
 31
0.0
  0
LINE
  5
441
330
1F
100
AcDbEntity
  8
0
100
AcDbLine
 10
-20.0
 20
3.5
 30
0.0
 11
-20.0
 21
8.5
 31
0.0
  0
LINE
  5
442
330
1F
100
AcDbEntity
  8
0
100
AcDbLine
 10
-20.0
 20
-8.5
 30
0.0
 11
-20.0
 21
-3.5
 31
0.0
  0
LINE
  5
443
330
1F
100
AcDbEntity
  8
0
100
AcDbLine
 10
-19.5
 20
3.0
 30
0.0
 11
-19.5
 21
3.5
 31
0.0
  0
LINE
  5
444
330
1F
100
AcDbEntity
  8
0
100
AcDbLine
 10
-19.5
 20
-3.5
 30
0.0
 11
-19.5
 21
-3.0
 31
0.0
  0
LINE
  5
445
330
1F
100
AcDbEntity
  8
0
100
AcDbLine
 10
-18.5
 20
3.0
 30
0.0
 11
-18.5
 21
6.0
 31
0.0
  0
LINE
  5
446
330
1F
100
AcDbEntity
  8
0
100
AcDbLine
 10
-18.5
 20
-6.0
 30
0.0
 11
-18.5
 21
-3.0
 31
0.0
  0
LINE
  5
447
330
1F
100
AcDbEntity
  8
0
100
AcDbLine
 10
-16.0
 20
7.060659999999999
 30
0.0
 11
-16.0
 21
8.5
 31
0.0
  0
LINE
  5
448
330
1F
100
AcDbEntity
  8
0
100
AcDbLine
 10
-16.0
 20
-8.5
 30
0.0
 11
-16.0
 21
-7.060659999999999
 31
0.0
  0
LINE
  5
449
330
1F
100
AcDbEntity
  8
0
100
AcDbLine
 10
-14.5
 20
0.8660249999999999
 30
0.0
 11
-14.5
 21
3.43934
 31
0.0
  0
LINE
  5
44A
330
1F
100
AcDbEntity
  8
0
100
AcDbLine
 10
-14.5
 20
-3.43934
 30
0.0
 11
-14.5
 21
-0.8660249999999999
 31
0.0
  0
LINE
  5
44B
330
1F
100
AcDbEntity
  8
0
100
AcDbLine
 10
-13.5
 20
9.5
 30
0.0
 11
-13.5
 21
10.0
 31
0.0
  0
LINE
  5
44C
330
1F
100
AcDbEntity
  8
0
100
AcDbLine
 10
-13.5
 20
-10.0
 30
0.0
 11
-13.5
 21
-9.5
 31
0.0
  0
LINE
  5
44D
330
1F
100
AcDbEntity
  8
0
100
AcDbLine
 10
-13.0
 20
8.5
 30
0.0
 11
-13.0
 21
9.5
 31
0.0
  0
LINE
  5
44E
330
1F
100
AcDbEntity
  8
0
100
AcDbLine
 10
-13.0
 20
-9.5
 30
0.0
 11
-13.0
 21
-8.5
 31
0.0
  0
LINE
  5
44F
330
1F
100
AcDbEntity
  8
0
100
AcDbLine
 10
-12.749112
 20
-0.06988
 30
0.0
 11
-12.749112
 21
0.06988
 31
0.0
  0
LINE
  5
450
330
1F
100
AcDbEntity
  8
0
100
AcDbLine
 10
-7.250888
 20
-0.06988
 30
0.0
 11
-7.250888
 21
0.06988
 31
0.0
  0
LINE
  5
451
330
1F
100
AcDbEntity
  8
0
100
AcDbLine
 10
-7.0
 20
8.5
 30
0.0
 11
-7.0
 21
9.5
 31
0.0
  0
LINE
  5
452
330
1F
100
AcDbEntity
  8
0
100
AcDbLine
 10
-7.0
 20
-9.5
 30
0.0
 11
-7.0
 21
-8.5
 31
0.0
  0
LINE
  5
453
330
1F
100
AcDbEntity
  8
0
100
AcDbLine
 10
-6.5
 20
9.5
 30
0.0
 11
-6.5
 21
10.0
 31
0.0
  0
LINE
  5
454
330
1F
100
AcDbEntity
  8
0
100
AcDbLine
 10
-6.5
 20
-10.0
 30
0.0
 11
-6.5
 21
-9.5
 31
0.0
  0
LINE
  5
455
330
1F
100
AcDbEntity
  8
0
100
AcDbLine
 10
-5.5
 20
-3.43934
 30
0.0
 11
-5.5
 21
-0.8660249999999999
 31
0.0
  0
LINE
  5
456
330
1F
100
AcDbEntity
  8
0
100
AcDbLine
 10
-5.5
 20
0.8660249999999999
 30
0.0
 11
-5.5
 21
3.43934
 31
0.0
  0
LINE
  5
457
330
1F
100
AcDbEntity
  8
0
100
AcDbLine
 10
-4.0
 20
7.060659999999999
 30
0.0
 11
-4.0
 21
8.5
 31
0.0
  0
LINE
  5
458
330
1F
100
AcDbEntity
  8
0
100
AcDbLine
 10
-4.0
 20
-8.5
 30
0.0
 11
-4.0
 21
-7.060659999999999
 31
0.0
  0
LINE
  5
459
330
1F
100
AcDbEntity
  8
0
100
AcDbLine
 10
-2.5
 20
-8.5
 30
0.0
 11
-2.5
 21
-6.43934
 31
0.0
  0
LINE
  5
45A
330
1F
100
AcDbEntity
  8
0
100
AcDbLine
 10
-2.5
 20
6.43934
 30
0.0
 11
-2.5
 21
8.5
 31
0.0
  0
LINE
  5
45B
330
1F
100
AcDbEntity
  8
0
100
AcDbLine
 10
2.5
 20
-8.5
 30
0.0
 11
2.5
 21
-6.43934
 31
0.0
  0
LINE
  5
45C
330
1F
100
AcDbEntity
  8
0
100
AcDbLine
 10
2.5
 20
6.43934
 30
0.0
 11
2.5
 21
8.5
 31
0.0
  0
LINE
  5
45D
330
1F
100
AcDbEntity
  8
0
100
AcDbLine
 10
4.0
 20
7.060659999999999
 30
0.0
 11
4.0
 21
8.5
 31
0.0
  0
LINE
  5
45E
330
1F
100
AcDbEntity
  8
0
100
AcDbLine
 10
4.0
 20
-8.5
 30
0.0
 11
4.0
 21
-7.060659999999999
 31
0.0
  0
LINE
  5
45F
330
1F
100
AcDbEntity
  8
0
100
AcDbLine
 10
5.5
 20
-3.43934
 30
0.0
 11
5.5
 21
-0.8660249999999999
 31
0.0
  0
LINE
  5
460
330
1F
100
AcDbEntity
  8
0
100
AcDbLine
 10
5.5
 20
0.8660249999999999
 30
0.0
 11
5.5
 21
3.43934
 31
0.0
  0
LINE
  5
461
330
1F
100
AcDbEntity
  8
0
100
AcDbLine
 10
6.5
 20
9.5
 30
0.0
 11
6.5
 21
10.0
 31
0.0
  0
LINE
  5
462
330
1F
100
AcDbEntity
  8
0
100
AcDbLine
 10
6.5
 20
-10.0
 30
0.0
 11
6.5
 21
-9.5
 31
0.0
  0
LINE
  5
463
330
1F
100
AcDbEntity
  8
0
100
AcDbLine
 10
7.0
 20
8.5
 30
0.0
 11
7.0
 21
9.5
 31
0.0
  0
LINE
  5
464
330
1F
100
AcDbEntity
  8
0
100
AcDbLine
 10
7.0
 20
-9.5
 30
0.0
 11
7.0
 21
-8.5
 31
0.0
  0
LINE
  5
465
330
1F
100
AcDbEntity
  8
0
100
AcDbLine
 10
7.251424999999999
 20
-0.088508
 30
0.0
 11
7.251424999999999
 21
0.088508
 31
0.0
  0
LINE
  5
466
330
1F
100
AcDbEntity
  8
0
100
AcDbLine
 10
12.749112
 20
-0.06988
 30
0.0
 11
12.749112
 21
0.06988
 31
0.0
  0
LINE
  5
467
330
1F
100
AcDbEntity
  8
0
100
AcDbLine
 10
13.0
 20
-9.5
 30
0.0
 11
13.0
 21
-8.5
 31
0.0
  0
LINE
  5
468
330
1F
100
AcDbEntity
  8
0
100
AcDbLine
 10
13.0
 20
8.5
 30
0.0
 11
13.0
 21
9.5
 31
0.0
  0
LINE
  5
469
330
1F
100
AcDbEntity
  8
0
100
AcDbLine
 10
13.5
 20
-10.0
 30
0.0
 11
13.5
 21
-9.5
 31
0.0
  0
LINE
  5
46A
330
1F
100
AcDbEntity
  8
0
100
AcDbLine
 10
13.5
 20
9.5
 30
0.0
 11
13.5
 21
10.0
 31
0.0
  0
LINE
  5
46B
330
1F
100
AcDbEntity
  8
0
100
AcDbLine
 10
14.5
 20
-3.43934
 30
0.0
 11
14.5
 21
-0.8660249999999999
 31
0.0
  0
LINE
  5
46C
330
1F
100
AcDbEntity
  8
0
100
AcDbLine
 10
14.5
 20
0.8660249999999999
 30
0.0
 11
14.5
 21
3.43934
 31
0.0
  0
LINE
  5
46D
330
1F
100
AcDbEntity
  8
0
100
AcDbLine
 10
16.0
 20
-8.5
 30
0.0
 11
16.0
 21
-7.060659999999999
 31
0.0
  0
LINE
  5
46E
330
1F
100
AcDbEntity
  8
0
100
AcDbLine
 10
16.0
 20
7.060659999999999
 30
0.0
 11
16.0
 21
8.5
 31
0.0
  0
LINE
  5
46F
330
1F
100
AcDbEntity
  8
0
100
AcDbLine
 10
18.5
 20
-6.0
 30
0.0
 11
18.5
 21
-3.0
 31
0.0
  0
LINE
  5
470
330
1F
100
AcDbEntity
  8
0
100
AcDbLine
 10
18.5
 20
3.0
 30
0.0
 11
18.5
 21
6.0
 31
0.0
  0
LINE
  5
471
330
1F
100
AcDbEntity
  8
0
100
AcDbLine
 10
19.5
 20
-3.5
 30
0.0
 11
19.5
 21
-3.0
 31
0.0
  0
LINE
  5
472
330
1F
100
AcDbEntity
  8
0
100
AcDbLine
 10
19.5
 20
3.0
 30
0.0
 11
19.5
 21
3.5
 31
0.0
  0
LINE
  5
473
330
1F
100
AcDbEntity
  8
0
100
AcDbLine
 10
20.0
 20
-8.5
 30
0.0
 11
20.0
 21
-3.5
 31
0.0
  0
LINE
  5
474
330
1F
100
AcDbEntity
  8
0
100
AcDbLine
 10
20.0
 20
3.5
 30
0.0
 11
20.0
 21
8.5
 31
0.0
  0
ENDSEC
  0
SECTION
  2
OBJECTS
  0
DICTIONARY
  5
C
330
0
100
AcDbDictionary
  3
ACAD_GROUP
350
D
  3
ACAD_LAYOUT
350
1A
  3
ACAD_MATERIAL
350
3B
  3
ACAD_MLEADERSTYLE
350
497
  3
ACAD_MLINESTYLE
350
17
  3
ACAD_PLOTSETTINGS
350
19
  3
ACAD_SCALELIST
350
24E
  3
ACAD_VISUALSTYLE
350
2A
  3
ACDBHEADERROUNDTRIPXREC
350
475
  3
ACDBVARIABLEDICTIONARY
350
495
  0
DICTIONARY
  5
D
102
{ACAD_REACTORS
330
C
102
}
330
C
100
AcDbDictionary
  0
DICTIONARY
  5
1A
102
{ACAD_REACTORS
330
C
102
}
330
C
100
AcDbDictionary
  0
DICTIONARY
  5
3B
102
{ACAD_REACTORS
330
C
102
}
330
C
100
AcDbDictionary
  3
BYBLOCK
350
3D
  3
BYLAYER
350
3C
  3
GLOBAL
350
3E
  0
DICTIONARY
  5
497
102
{ACAD_REACTORS
330
C
102
}
330
C
100
AcDbDictionary
  0
DICTIONARY
  5
17
102
{ACAD_REACTORS
330
C
102
}
330
C
100
AcDbDictionary
  3
STANDARD
350
18
  0
DICTIONARY
  5
19
102
{ACAD_REACTORS
330
C
102
}
330
C
100
AcDbDictionary
  0
DICTIONARY
  5
24E
102
{ACAD_REACTORS
330
C
102
}
330
C
100
AcDbDictionary
  3
A0
350
24F
  3
A1
350
250
  3
A2
350
251
  3
A3
350
252
  3
A4
350
253
  3
A5
350
254
  3
A6
350
255
  3
A7
350
256
  3
A8
350
257
  3
A9
350
258
  3
B0
350
259
  3
B1
350
25A
  3
B2
350
25B
  3
B3
350
25C
  3
B4
350
25D
  3
B5
350
25E
  3
B6
350
25F
  3
B7
350
260
  3
B8
350
261
  3
B9
350
262
  3
C0
350
263
  3
C1
350
264
  3
C2
350
265
  3
C3
350
266
  3
C4
350
267
  3
C5
350
268
  3
C6
350
269
  3
C7
350
26A
  3
C8
350
26B
  3
C9
350
26C
  3
D0
350
26D
  3
D1
350
26E
  3
D2
350
26F
  0
DICTIONARY
  5
2A
102
{ACAD_REACTORS
330
C
102
}
330
C
100
AcDbDictionary
  3
2DWIREFRAME
350
2F
  3
3D_HIDDEN
350
31
  3
3DWIREFRAME
350
30
  3
BASIC
350
32
  3
BRIGHTEN
350
36
  3
COLORCHANGE
350
3A
  3
CONCEPTUAL
350
34
  3
DIM
350
35
  3
FACEPATTERN
350
39
  3
FLAT
350
2B
  3
FLATWITHEDGES
350
2C
  3
GOURAUD
350
2D
  3
GOURAUDWITHEDGES
350
2E
  3
LINEPATTERN
350
38
  3
REALISTIC
350
33
  3
THICKEN
350
37
  0
DICTIONARY
  5
475
102
{ACAD_REACTORS
330
C
102
}
330
C
100
AcDbDictionary
  3
CEPSNTYPE
350
47E
  3
DIMSTYLEDATA
350
494
  3
FINGERPRINTGUID
350
47F
  3
HYPERLINKBASE
350
478
  3
INSUNITS
350
47D
  3
LAYOUTDICT
350
47A
  3
LWETCUNION
350
47C
  3
PLOTSETDICT
350
47B
  3
PSVPSCALE
350
481
  3
PUCSBASE
350
484
  3
PUCSORGBACK
350
48A
  3
PUCSORGBOTTOM
350
486
  3
PUCSORGFRONT
350
489
  3
PUCSORGLEFT
350
487
  3
PUCSORGRIGHT
350
488
  3
PUCSORGTOP
350
485
  3
PUCSORTHOREF
350
482
  3
PUCSORTHOVIEW
350
483
  3
STYLESHEET
350
479
  3
TSTACKALIGN
350
476
  3
TSTACKSIZE
350
477
  3
UCSBASE
350
48D
  3
UCSORGBACK
350
493
  3
UCSORGBOTTOM
350
48F
  3
UCSORGFRONT
350
492
  3
UCSORGLEFT
350
490
  3
UCSORGRIGHT
350
491
  3
UCSORGTOP
350
48E
  3
UCSORTHOREF
350
48B
  3
UCSORTHOVIEW
350
48C
  3
VERSIONGUID
350
480
  0
DICTIONARY
  5
495
102
{ACAD_REACTORS
330
C
102
}
330
C
100
AcDbDictionary
  3
CANNOSCALE
350
49A
  3
DIMASSOC
350
49B
  3
HIDETEXT
350
49C
  3
PSOLHEIGHT
350
499
  3
PSOLWIDTH
350
498
  0
MATERIAL
  5
3D
102
{ACAD_REACTORS
330
3B
102
}
102
{ACAD_XDICTIONARY
360
49F
102
}
330
3B
100
AcDbMaterial
  1
ByBlock
  0
MATERIAL
  5
3C
102
{ACAD_REACTORS
330
3B
102
}
102
{ACAD_XDICTIONARY
360
49D
102
}
330
3B
100
AcDbMaterial
  1
ByLayer
  0
MATERIAL
  5
3E
102
{ACAD_REACTORS
330
3B
102
}
102
{ACAD_XDICTIONARY
360
4A1
102
}
330
3B
100
AcDbMaterial
  1
Global
  0
MLINESTYLE
  5
18
102
{ACAD_REACTORS
330
17
102
}
330
17
100
AcDbMlineStyle
  2
Standard
 70
     0
  3

 62
   256
 51
90.0
 52
90.0
 71
     2
 49
0.5
 62
   256
  6
BYLAYER
 49
-0.5
 62
   256
  6
BYLAYER
  0
ACAD_PROXY_OBJECT
  5
24F
102
{ACAD_REACTORS
330
24E
102
}
330
24E
100
AcDbProxyObject
 90
      499
 91
      503
 93
       41
310
903313A31580
  0
ACAD_PROXY_OBJECT
  5
250
102
{ACAD_REACTORS
330
24E
102
}
330
24E
100
AcDbProxyObject
 90
      499
 91
      503
 93
      105
310
903313A324000000000000004000
  0
ACAD_PROXY_OBJECT
  5
251
102
{ACAD_REACTORS
330
24E
102
}
330
24E
100
AcDbProxyObject
 90
      499
 91
      503
 93
      105
310
903313A344000000000000104000
  0
ACAD_PROXY_OBJECT
  5
252
102
{ACAD_REACTORS
330
24E
102
}
330
24E
100
AcDbProxyObject
 90
      499
 91
      503
 93
      105
310
903313A354000000000000144000
  0
ACAD_PROXY_OBJECT
  5
253
102
{ACAD_REACTORS
330
24E
102
}
330
24E
100
AcDbProxyObject
 90
      499
 91
      503
 93
      105
310
903313A384000000000000204000
  0
ACAD_PROXY_OBJECT
  5
254
102
{ACAD_REACTORS
330
24E
102
}
330
24E
100
AcDbProxyObject
 90
      499
 91
      503
 93
      113
310
904313A31304000000000000244000
  0
ACAD_PROXY_OBJECT
  5
255
102
{ACAD_REACTORS
330
24E
102
}
330
24E
100
AcDbProxyObject
 90
      499
 91
      503
 93
      113
310
904313A31364000000000000304000
  0
ACAD_PROXY_OBJECT
  5
256
102
{ACAD_REACTORS
330
24E
102
}
330
24E
100
AcDbProxyObject
 90
      499
 91
      503
 93
      113
310
904313A32304000000000000344000
  0
ACAD_PROXY_OBJECT
  5
257
102
{ACAD_REACTORS
330
24E
102
}
330
24E
100
AcDbProxyObject
 90
      499
 91
      503
 93
      113
310
904313A333040000000000003E4000
  0
ACAD_PROXY_OBJECT
  5
258
102
{ACAD_REACTORS
330
24E
102
}
330
24E
100
AcDbProxyObject
 90
      499
 91
      503
 93
      113
310
904313A34304000000000000444000
  0
ACAD_PROXY_OBJECT
  5
259
102
{ACAD_REACTORS
330
24E
102
}
330
24E
100
AcDbProxyObject
 90
      499
 91
      503
 93
      113
310
904313A35304000000000000494000
  0
ACAD_PROXY_OBJECT
  5
25A
102
{ACAD_REACTORS
330
24E
102
}
330
24E
100
AcDbProxyObject
 90
      499
 91
      503
 93
      121
310
905313A3130304000000000000594000
  0
ACAD_PROXY_OBJECT
  5
25B
102
{ACAD_REACTORS
330
24E
102
}
330
24E
100
AcDbProxyObject
 90
      499
 91
      503
 93
      105
310
903323A310000000000000010100
  0
ACAD_PROXY_OBJECT
  5
25C
102
{ACAD_REACTORS
330
24E
102
}
330
24E
100
AcDbProxyObject
 90
      499
 91
      503
 93
      105
310
903343A310000000000000410100
  0
ACAD_PROXY_OBJECT
  5
25D
102
{ACAD_REACTORS
330
24E
102
}
330
24E
100
AcDbProxyObject
 90
      499
 91
      503
 93
      105
310
903383A310000000000000810100
  0
ACAD_PROXY_OBJECT
  5
25E
102
{ACAD_REACTORS
330
24E
102
}
330
24E
100
AcDbProxyObject
 90
      499
 91
      503
 93
      113
310
90431303A310000000000000910100
  0
ACAD_PROXY_OBJECT
  5
25F
102
{ACAD_REACTORS
330
24E
102
}
330
24E
100
AcDbProxyObject
 90
      499
 91
      503
 93
      121
310
9053130303A310000000000001650100
  0
ACAD_PROXY_OBJECT
  5
260
102
{ACAD_REACTORS
330
24E
102
}
330
24E
100
AcDbProxyObject
 90
      499
 91
      503
 93
      257
310
90E312F31323822203D2031272D3022000000000000200FC000000000000284000
  0
ACAD_PROXY_OBJECT
  5
261
102
{ACAD_REACTORS
330
24E
102
}
330
24E
100
AcDbProxyObject
 90
      499
 91
      503
 93
      249
310
90D312F363422203D2031272D3022000000000000240FC000000000000284000
  0
ACAD_PROXY_OBJECT
  5
262
102
{ACAD_REACTORS
330
24E
102
}
330
24E
100
AcDbProxyObject
 90
      499
 91
      503
 93
      249
310
90D312F333222203D2031272D3022000000000000280FC000000000000284000
  0
ACAD_PROXY_OBJECT
  5
263
102
{ACAD_REACTORS
330
24E
102
}
330
24E
100
AcDbProxyObject
 90
      499
 91
      503
 93
      249
310
90D312F313622203D2031272D30220000000000002C0FC000000000000284000
  0
ACAD_PROXY_OBJECT
  5
264
102
{ACAD_REACTORS
330
24E
102
}
330
24E
100
AcDbProxyObject
 90
      499
 91
      503
 93
      249
310
90D332F333222203D2031272D30220000000000002E0FC000000000000284000
  0
ACAD_PROXY_OBJECT
  5
265
102
{ACAD_REACTORS
330
24E
102
}
330
24E
100
AcDbProxyObject
 90
      499
 91
      503
 93
      241
310
90C312F3822203D2031272D3022000000000000300FC000000000000284000
  0
ACAD_PROXY_OBJECT
  5
266
102
{ACAD_REACTORS
330
24E
102
}
330
24E
100
AcDbProxyObject
 90
      499
 91
      503
 93
      249
310
90D332F313622203D2031272D3022000000000000320FC000000000000284000
  0
ACAD_PROXY_OBJECT
  5
267
102
{ACAD_REACTORS
330
24E
102
}
330
24E
100
AcDbProxyObject
 90
      499
 91
      503
 93
      241
310
90C312F3422203D2031272D3022000000000000340FC000000000000284000
  0
ACAD_PROXY_OBJECT
  5
268
102
{ACAD_REACTORS
330
24E
102
}
330
24E
100
AcDbProxyObject
 90
      499
 91
      503
 93
      241
310
90C332F3822203D2031272D3022000000000000360FC000000000000284000
  0
ACAD_PROXY_OBJECT
  5
269
102
{ACAD_REACTORS
330
24E
102
}
330
24E
100
AcDbProxyObject
 90
      499
 91
      503
 93
      241
310
90C312F3222203D2031272D3022000000000000380FC000000000000284000
  0
ACAD_PROXY_OBJECT
  5
26A
102
{ACAD_REACTORS
330
24E
102
}
330
24E
100
AcDbProxyObject
 90
      499
 91
      503
 93
      241
310
90C332F3422203D2031272D30220000000000003A0FC000000000000284000
  0
ACAD_PROXY_OBJECT
  5
26B
102
{ACAD_REACTORS
330
24E
102
}
330
24E
100
AcDbProxyObject
 90
      499
 91
      503
 93
      161
310
90A3122203D2031272D30224000000000000284000
  0
ACAD_PROXY_OBJECT
  5
26C
102
{ACAD_REACTORS
330
24E
102
}
330
24E
100
AcDbProxyObject
 90
      499
 91
      503
 93
      257
310
90E312D312F3222203D2031272D30220000000000003E0FC000000000000284000
  0
ACAD_PROXY_OBJECT
  5
26D
102
{ACAD_REACTORS
330
24E
102
}
330
24E
100
AcDbProxyObject
 90
      499
 91
      503
 93
      225
310
90A3322203D2031272D302200000000000002100000000000000284000
  0
ACAD_PROXY_OBJECT
  5
26E
102
{ACAD_REACTORS
330
24E
102
}
330
24E
100
AcDbProxyObject
 90
      499
 91
      503
 93
      225
310
90A3622203D2031272D302200000000000006100000000000000284000
  0
ACAD_PROXY_OBJECT
  5
26F
102
{ACAD_REACTORS
330
24E
102
}
330
24E
100
AcDbProxyObject
 90
      499
 91
      503
 93
      249
310
90D31272D3022203D2031272D30220000000000000A100000000000000284000
  0
ACAD_PROXY_OBJECT
  5
2F
102
{ACAD_REACTORS
330
2A
102
}
330
2A
100
AcDbProxyObject
 90
      499
 91
      501
 93
      436
310
42CC9915DA5C99599C985B595049028333333333333E3BF0000000000000FB0107901411070040501600405405064090741402480A0340
1001
ACAD
1000
AcDbSavedByObjectVersion
1070
     0
  0
ACAD_PROXY_OBJECT
  5
31
102
{ACAD_REACTORS
330
2A
102
}
330
2A
100
AcDbProxyObject
 90
      499
 91
      501
 93
      500
310
424CD108121A5919195B90640502408333333333333E3BF0000000000000FB01079024090700405020000000000001110200405405064090740C02480A0340
1001
ACAD
1000
AcDbSavedByObjectVersion
1070
     0
  0
ACAD_PROXY_OBJECT
  5
30
102
{ACAD_REACTORS
330
2A
102
}
330
2A
100
AcDbProxyObject
 90
      499
 91
      501
 93
      436
310
42CCD915DA5C99599C985B595059028333333333333E3BF0000000000000FB0107901411070040501600405405064090741402480A0340
1001
ACAD
1000
AcDbSavedByObjectVersion
1070
     0
  0
ACAD_PROXY_OBJECT
  5
32
102
{ACAD_REACTORS
330
2A
102
}
330
2A
100
AcDbProxyObject
 90
      499
 91
      501
 93
      388
310
4150985CDA58D07406404333333333333E3BF0000000000000FB0107A41107004050150841D405064090741402480A0350
1001
ACAD
1000
AcDbSavedByObjectVersion
1070
     0
  0
ACAD_PROXY_OBJECT
  5
36
102
{ACAD_REACTORS
330
2A
102
}
330
2A
100
AcDbProxyObject
 90
      499
 91
      501
 93
      428
310
42109C9A59DA1D195B90C409028333333333333E3BF0000000000000FB010790141107004050150841D405064090741402480A029950
1001
ACAD
1000
AcDbSavedByObjectVersion
1070
     0
  0
ACAD_PROXY_OBJECT
  5
3A
102
{ACAD_REACTORS
330
2A
102
}
330
2A
100
AcDbProxyObject
 90
      499
 91
      501
 93
      452
310
42D0DBDB1BDC90DA185B99D95104090240C333333333333E3BF0000000000000FB0108901411070040501508421405064090741402480A0350
1001
ACAD
1000
AcDbSavedByObjectVersion
1070
     0
  0
ACAD_PROXY_OBJECT
  5
34
102
{ACAD_REACTORS
330
2A
102
}
330
2A
100
AcDbProxyObject
 90
      499
 91
      501
 93
      500
310
4290DBDB98D95C1D1D585B10940D028333333333333E3BF0000000000000FB0107902409070040501000000000000111010841D405064090740C02480A0340
1001
ACAD
1000
AcDbSavedByObjectVersion
1070
     0
  0
ACAD_PROXY_OBJECT
  5
35
102
{ACAD_REACTORS
330
2A
102
}
330
2A
100
AcDbProxyObject
 90
      499
 91
      501
 93
      412
310
40D11A5B50B409028333333333333E3BF0000000000000FB010790141107004050150841D405064090741402480A02677FFFFFD0
1001
ACAD
1000
AcDbSavedByObjectVersion
1070
     0
  0
ACAD_PROXY_OBJECT
  5
39
102
{ACAD_REACTORS
330
2A
102
}
330
2A
100
AcDbProxyObject
 90
      499
 91
      501
 93
      444
310
42D19858D95C185D1D195C9B90F409028333333333333E3BF0000000000000FB010790141107004050150841D405064090741402480A0350
1001
ACAD
1000
AcDbSavedByObjectVersion
1070
     0
  0
ACAD_PROXY_OBJECT
  5
2B
102
{ACAD_REACTORS
330
2A
102
}
330
2A
100
AcDbProxyObject
 90
      499
 91
      501
 93
      388
310
41119B185D240901404333333333333E3BF0000000000000F9010740A41107004050150841D405064090741402480A1B50
1001
ACAD
1000
AcDbSavedByObjectVersion
1070
     0
  0
ACAD_PROXY_OBJECT
  5
2C
102
{ACAD_REACTORS
330
2A
102
}
330
2A
100
AcDbProxyObject
 90
      499
 91
      501
 93
      476
310
43519B185D15DA5D1A115919D95CD0140901404333333333333E3BF0000000000000F9010740901411070040501600405405064090741402480A1B50
1001
ACAD
1000
AcDbSavedByObjectVersion
1070
     0
  0
ACAD_PROXY_OBJECT
  5
2D
102
{ACAD_REACTORS
330
2A
102
}
330
2A
100
AcDbProxyObject
 90
      499
 91
      501
 93
      412
310
41D1DBDD5C985D5910240902404333333333333E3BF0000000000000F9010740A411070040501641D405064090741402480A1B50
1001
ACAD
1000
AcDbSavedByObjectVersion
1070
     0
  0
ACAD_PROXY_OBJECT
  5
2E
102
{ACAD_REACTORS
330
2A
102
}
330
2A
100
AcDbProxyObject
 90
      499
 91
      501
 93
      500
310
4411DBDD5C985D5915DA5D1A115919D95CD0340902404333333333333E3BF0000000000000F9010740901411070040501600405405064090741402480A1B50
1001
ACAD
1000
AcDbSavedByObjectVersion
1070
     0
  0
ACAD_PROXY_OBJECT
  5
38
102
{ACAD_REACTORS
330
2A
102
}
330
2A
100
AcDbProxyObject
 90
      499
 91
      501
 93
      444
310
42D31A5B995C185D1D195C9B90E409028333333333333E3BF0000000000000FB010790141107004050750841D405064090741402483A0350
1001
ACAD
1000
AcDbSavedByObjectVersion
1070
     0
  0
ACAD_PROXY_OBJECT
  5
33
102
{ACAD_REACTORS
330
2A
102
}
330
2A
100
AcDbProxyObject
 90
      499
 91
      501
 93
      420
310
425499585B1A5CDD1A58D08409028333333333333E3BF0000000000000FB01079019070040501508421405064090741402480A1B40
1001
ACAD
1000
AcDbSavedByObjectVersion
1070
     0
  0
ACAD_PROXY_OBJECT
  5
37
102
{ACAD_REACTORS
330
2A
102
}
330
2A
100
AcDbProxyObject
 90
      499
 91
      501
 93
      412
310
41D51A1A58DAD95B90D409028333333333333E3BF0000000000000FB010790141107004050150C41D405064090741402480A0350
1001
ACAD
1000
AcDbSavedByObjectVersion
1070
     0
  0
XRECORD
  5
47E
102
{ACAD_REACTORS
330
475
102
}
330
475
100
AcDbXrecord
 90
        0
  0
XRECORD
  5
494
102
{ACAD_REACTORS
330
475
102
}
330
475
100
AcDbXrecord
1000
DSTYLE
1002
{
1070
   340
340
11
1002
}
  0
XRECORD
  5
47F
102
{ACAD_REACTORS
330
475
102
}
330
475
100
AcDbXrecord
  1
{DAAA3F2A-066B-4DB8-841F-3FF6CE01B3F5}
  0
XRECORD
  5
478
102
{ACAD_REACTORS
330
475
102
}
330
475
100
AcDbXrecord
  1

  0
XRECORD
  5
47D
102
{ACAD_REACTORS
330
475
102
}
330
475
100
AcDbXrecord
 90
        4
  0
XRECORD
  5
47A
102
{ACAD_REACTORS
330
475
102
}
330
475
100
AcDbXrecord
340
1A
  0
XRECORD
  5
47C
102
{ACAD_REACTORS
330
475
102
}
330
475
100
AcDbXrecord
 90
    10781
  0
XRECORD
  5
47B
102
{ACAD_REACTORS
330
475
102
}
330
475
100
AcDbXrecord
340
19
  0
XRECORD
  5
481
102
{ACAD_REACTORS
330
475
102
}
330
475
100
AcDbXrecord
 40
0.0
  0
XRECORD
  5
484
102
{ACAD_REACTORS
330
475
102
}
330
475
100
AcDbXrecord
340
0
  0
XRECORD
  5
48A
102
{ACAD_REACTORS
330
475
102
}
330
475
100
AcDbXrecord
 10
0.0
 20
0.0
 30
0.0
  0
XRECORD
  5
486
102
{ACAD_REACTORS
330
475
102
}
330
475
100
AcDbXrecord
 10
0.0
 20
0.0
 30
0.0
  0
XRECORD
  5
489
102
{ACAD_REACTORS
330
475
102
}
330
475
100
AcDbXrecord
 10
0.0
 20
0.0
 30
0.0
  0
XRECORD
  5
487
102
{ACAD_REACTORS
330
475
102
}
330
475
100
AcDbXrecord
 10
0.0
 20
0.0
 30
0.0
  0
XRECORD
  5
488
102
{ACAD_REACTORS
330
475
102
}
330
475
100
AcDbXrecord
 10
0.0
 20
0.0
 30
0.0
  0
XRECORD
  5
485
102
{ACAD_REACTORS
330
475
102
}
330
475
100
AcDbXrecord
 10
0.0
 20
0.0
 30
0.0
  0
XRECORD
  5
482
102
{ACAD_REACTORS
330
475
102
}
330
475
100
AcDbXrecord
340
0
  0
XRECORD
  5
483
102
{ACAD_REACTORS
330
475
102
}
330
475
100
AcDbXrecord
 70
     0
  0
XRECORD
  5
479
102
{ACAD_REACTORS
330
475
102
}
330
475
100
AcDbXrecord
  1

  0
XRECORD
  5
476
102
{ACAD_REACTORS
330
475
102
}
330
475
100
AcDbXrecord
 90
        1
  0
XRECORD
  5
477
102
{ACAD_REACTORS
330
475
102
}
330
475
100
AcDbXrecord
 90
       70
  0
XRECORD
  5
48D
102
{ACAD_REACTORS
330
475
102
}
330
475
100
AcDbXrecord
340
0
  0
XRECORD
  5
493
102
{ACAD_REACTORS
330
475
102
}
330
475
100
AcDbXrecord
 10
0.0
 20
0.0
 30
0.0
  0
XRECORD
  5
48F
102
{ACAD_REACTORS
330
475
102
}
330
475
100
AcDbXrecord
 10
0.0
 20
0.0
 30
0.0
  0
XRECORD
  5
492
102
{ACAD_REACTORS
330
475
102
}
330
475
100
AcDbXrecord
 10
0.0
 20
0.0
 30
0.0
  0
XRECORD
  5
490
102
{ACAD_REACTORS
330
475
102
}
330
475
100
AcDbXrecord
 10
0.0
 20
0.0
 30
0.0
  0
XRECORD
  5
491
102
{ACAD_REACTORS
330
475
102
}
330
475
100
AcDbXrecord
 10
0.0
 20
0.0
 30
0.0
  0
XRECORD
  5
48E
102
{ACAD_REACTORS
330
475
102
}
330
475
100
AcDbXrecord
 10
0.0
 20
0.0
 30
0.0
  0
XRECORD
  5
48B
102
{ACAD_REACTORS
330
475
102
}
330
475
100
AcDbXrecord
340
0
  0
XRECORD
  5
48C
102
{ACAD_REACTORS
330
475
102
}
330
475
100
AcDbXrecord
 70
     0
  0
XRECORD
  5
480
102
{ACAD_REACTORS
330
475
102
}
330
475
100
AcDbXrecord
  1
{FAEB1C32-E019-11D5-929B-00C0DF256EC4}
  0
DICTIONARYVAR
  5
49A
102
{ACAD_REACTORS
330
495
102
}
330
495
100
DictionaryVariables
280
     0
  1
1:1
  0
DICTIONARYVAR
  5
49B
102
{ACAD_REACTORS
330
495
102
}
330
495
100
DictionaryVariables
280
     0
  1
2
  0
DICTIONARYVAR
  5
49C
102
{ACAD_REACTORS
330
495
102
}
330
495
100
DictionaryVariables
280
     0
  1
1
  0
DICTIONARYVAR
  5
499
102
{ACAD_REACTORS
330
495
102
}
330
495
100
DictionaryVariables
280
     0
  1
80.000000
  0
DICTIONARYVAR
  5
498
102
{ACAD_REACTORS
330
495
102
}
330
495
100
DictionaryVariables
280
     0
  1
5.000000
  0
DICTIONARY
  5
49F
330
3D
100
AcDbDictionary
280
     1
  3
ACAD_XREC_ROUNDTRIP
360
4A0
  0
DICTIONARY
  5
49D
330
3C
100
AcDbDictionary
280
     1
  3
ACAD_XREC_ROUNDTRIP
360
49E
  0
DICTIONARY
  5
4A1
330
3E
100
AcDbDictionary
280
     1
  3
ACAD_XREC_ROUNDTRIP
360
4A2
  0
XRECORD
  5
4A0
102
{ACAD_REACTORS
330
49F
102
}
330
49F
100
AcDbXrecord
102
MATERIAL
148
0.0
149
0.0
149
0.0
 93
        0
 94
      127
282
     0
 72
     1
 77
     1
171
     1
175
     1
179
     1
273
     0
  0
XRECORD
  5
49E
102
{ACAD_REACTORS
330
49D
102
}
330
49D
100
AcDbXrecord
102
MATERIAL
148
0.0
149
0.0
149
0.0
 93
        0
 94
      127
282
     0
 72
     1
 77
     1
171
     1
175
     1
179
     1
273
     0
  0
XRECORD
  5
4A2
102
{ACAD_REACTORS
330
4A1
102
}
330
4A1
100
AcDbXrecord
102
MATERIAL
148
0.0
149
0.0
149
0.0
 93
        0
 94
      127
282
     0
 72
     1
 77
     1
171
     1
175
     1
179
     1
273
     0
  0
ENDSEC
  0
EOF
